/* XPM */
static char * ext_up_xpm[] = {
"32 32 285 2",
"  	c #C99C65",
". 	c #A77A51",
"+ 	c #C99B66",
"@ 	c #A5784F",
"# 	c #A4764E",
"$ 	c #A1744C",
"% 	c #7E5A3B",
"& 	c #996D49",
"* 	c #7A5638",
"= 	c #9E724B",
"- 	c #9B724A",
"; 	c #425A2E",
"> 	c #47592E",
", 	c #9A704A",
"' 	c #A1734C",
") 	c #A0784C",
"! 	c #698236",
"~ 	c #7C5F3A",
"{ 	c #9D754B",
"] 	c #6F8439",
"^ 	c #678635",
"/ 	c #A97B51",
"( 	c #CFA069",
"_ 	c #D0A169",
": 	c #C89965",
"< 	c #876440",
"[ 	c #A1754D",
"} 	c #A2764E",
"| 	c #825D3D",
"1 	c #785538",
"2 	c #664032",
"3 	c #7C583A",
"4 	c #9F724B",
"5 	c #A87A50",
"6 	c #A1744D",
"7 	c #9A724A",
"8 	c #5C6135",
"9 	c #6D5335",
"0 	c #6D8438",
"a 	c #987749",
"b 	c #73833A",
"c 	c #9C794A",
"d 	c #997749",
"e 	c #6E8137",
"f 	c #A87A51",
"g 	c #CA9C66",
"h 	c #AC7F53",
"i 	c #997649",
"j 	c #A2794D",
"k 	c #9D724B",
"l 	c #7E593A",
"m 	c #785C38",
"n 	c #7B583A",
"o 	c #AB7E53",
"p 	c #CD9E67",
"q 	c #CC9E67",
"r 	c #A3794F",
"s 	c #6C683B",
"t 	c #C09861",
"u 	c #876541",
"v 	c #785638",
"w 	c #7D5A3B",
"x 	c #A0744C",
"y 	c #9F774C",
"z 	c #688236",
"A 	c #6E8138",
"B 	c #7C5E3A",
"C 	c #755936",
"D 	c #7D5A3A",
"E 	c #A67A50",
"F 	c #A3764E",
"G 	c #9F754C",
"H 	c #8D7446",
"I 	c #A1784D",
"J 	c #815D3D",
"K 	c #9A7349",
"L 	c #728339",
"M 	c #CFA169",
"N 	c #AA7E52",
"O 	c #A2794E",
"P 	c #C99C66",
"Q 	c #A4784F",
"R 	c #A0744D",
"S 	c #A77A50",
"T 	c #A3774E",
"U 	c #9C754A",
"V 	c #805E3C",
"W 	c #785D38",
"X 	c #9B754A",
"Y 	c #9B714A",
"Z 	c #7C5B3A",
"` 	c #7B5D39",
" .	c #9D734B",
"..	c #957248",
"+.	c #526131",
"@.	c #917D47",
"#.	c #9E754D",
"$.	c #967248",
"%.	c #73803A",
"&.	c #9C764A",
"*.	c #987849",
"=.	c #6C8437",
"-.	c #9F784C",
";.	c #CC9E68",
">.	c #A87D51",
",.	c #A87E51",
"'.	c #C49763",
").	c #C99B65",
"!.	c #C69863",
"~.	c #A2764D",
"{.	c #9A7049",
"].	c #9F744C",
"^.	c #9E734C",
"/.	c #535C31",
"(.	c #39572B",
"_.	c #646739",
":.	c #C59B64",
"<.	c #8D6A44",
"[.	c #7D5C3B",
"}.	c #9E774B",
"|.	c #74843A",
"1.	c #C89A65",
"2.	c #84603E",
"3.	c #7E5B3B",
"4.	c #86603F",
"5.	c #A67950",
"6.	c #AC7E53",
"7.	c #A5774F",
"8.	c #C79964",
"9.	c #825D3C",
"0.	c #7A5739",
"a.	c #825C3C",
"b.	c #7B5A3A",
"c.	c #765738",
"d.	c #CB9D67",
"e.	c #A4774E",
"f.	c #A0774C",
"g.	c #A2744D",
"h.	c #A4774F",
"i.	c #795538",
"j.	c #A0734C",
"k.	c #C59964",
"l.	c #623D30",
"m.	c #7C573A",
"n.	c #A0764D",
"o.	c #AA7E53",
"p.	c #A87B50",
"q.	c #9C704A",
"r.	c #674032",
"s.	c #99734A",
"t.	c #636538",
"u.	c #A2784F",
"v.	c #C19862",
"w.	c #83603E",
"x.	c #CE9F68",
"y.	c #CD9F68",
"z.	c #CA9B66",
"A.	c #A6784F",
"B.	c #9A6E49",
"C.	c #7D593A",
"D.	c #9E714B",
"E.	c #4F5D31",
"F.	c #485A2E",
"G.	c #A0784D",
"H.	c #75853C",
"I.	c #D1A26A",
"J.	c #AD7F54",
"K.	c #5C6136",
"L.	c #A4794F",
"M.	c #6C673B",
"N.	c #C09862",
"O.	c #886541",
"P.	c #C99D66",
"Q.	c #825E3D",
"R.	c #7E5A3A",
"S.	c #CD9E68",
"T.	c #9E754B",
"U.	c #815D3C",
"V.	c #795C38",
"W.	c #99724A",
"X.	c #515D32",
"Y.	c #5A6336",
"Z.	c #74803A",
"`.	c #9C784B",
" +	c #A97C52",
".+	c #A87B51",
"++	c #A3764D",
"@+	c #9D714B",
"#+	c #9D704A",
"$+	c #9E744C",
"%+	c #5B6034",
"&+	c #987249",
"*+	c #876240",
"=+	c #795638",
"-+	c #6D4635",
";+	c #A4764F",
">+	c #9C754B",
",+	c #6E8038",
"'+	c #72833A",
")+	c #9D794A",
"!+	c #82623C",
"~+	c #775738",
"{+	c #6B4A34",
"]+	c #9A754A",
"^+	c #9B734B",
"/+	c #865F3E",
"(+	c #9E784B",
"_+	c #7C5C3A",
":+	c #9C724A",
"<+	c #9D764B",
"[+	c #A77B51",
"}+	c #C69A64",
"|+	c #A5774E",
"1+	c #D0A16A",
"2+	c #D0A26A",
"3+	c #A3774D",
"4+	c #646539",
"5+	c #C49A63",
"6+	c #88613F",
"7+	c #A2754D",
"8+	c #815E3D",
"9+	c #7C5C3B",
"0+	c #9C734B",
"a+	c #D2A46B",
"b+	c #D2A36B",
"c+	c #C89C65",
"d+	c #A77C50",
"e+	c #C59863",
"f+	c #8B6943",
"g+	c #675B34",
"h+	c #73452A",
"i+	c #6A3A22",
"j+	c #683820",
"k+	c #5E8732",
"l+	c #995B22",
"m+	c #9A6029",
"n+	c #74552E",
"o+	c #78833C",
"p+	c #3E672F",
"q+	c #995A1D",
"r+	c #6C3D24",
"s+	c #6A6D3B",
"t+	c #625E33",
"u+	c #736E3D",
"v+	c #546B34",
"w+	c #6A8436",
"x+	c #714429",
"y+	c #975B24",
"z+	c #94571E",
"A+	c #76492D",
"B+	c #6E8438",
"C+	c #556B35",
"D+	c #A0642B",
"E+	c #714228",
"F+	c #5A6B36",
"G+	c #827042",
"H+	c #9B744B",
"I+	c #608332",
"J+	c #D6BD42",
"K+	c #C88028",
"L+	c #985818",
"M+	c #6D3E25",
"N+	c #663A21",
"O+	c #74462B",
"P+	c #94AF39",
"Q+	c #382028",
"R+	c #392328",
"S+	c #392B29",
"T+	c #4C7131",
"U+	c #406932",
"V+	c #3E6738",
"W+	c #678637",
"X+	c #4C7139",
"Y+	c #406930",
"Z+	c #678634",
"`+	c #406931",
" @	c #5E8733",
".@	c #406939",
"+@	c #3F6835",
"@@	c #4A7037",
"#@	c #608135",
"$@	c #406938",
"%@	c #4B7036",
"&@	c #406933",
"*@	c #C17E29",
"  . . + @ # $ % & * % = % % - ; > , ' # ) ! ~ { ) ] ^ ) / ( _ : ",
"< [ # } | $ $ 1 2 3 4 5 @ 6 7 8 9 2 3 $ ) 0 a b c d e { f g h / ",
"i j k l % $ { m n = o p q r s t u v w x y b a z A B C D = E F G ",
"H I J D K y L ! { f q M q N O q P Q R S T U V W X Y Z ` V  ...+.",
"@.t #.$.%.&.*.=.-./ ;.>.,.'.Q o ).. S !.N ~.{.V ].} k k k ^./.(.",
"_.:.<.[.~ ].}.|.) f 1.2.3.} 4.5.6.7.7.6.8.@ 9.= F = 3 0.a.= b.c.",
"O ;.d.@ 6 S e.f.F g.h.i.* j.Q k.+ . F @ o 4 3.$ x 3 l.m.4 f @ 6 ",
"n.o.q p.p.!.Q F k 9.q.r.1 j.s.t.u.F F S v.w.3.$ { m n 4 6.x.y./ ",
"} S z.A.# @ | B.C.% D.3 % - E.F., $ # G.H.~ K f.b ! { f y.I.x.J.",
"# # } | $ $ 1 2 3 4 f @ 6 7 K.9 2 3 $ ) 0 d b c d e { f g h h y.",
"# = l % $ { m n 4 6.x.y.L.M.N.O.i.% $ f.b d ! A B C D 4 5 # r P.",
"@ Q.R.K f.b ! { f y.I.x.6.L.S.d.@ 6 5 e.T.U.V.{ = l 0.a.$ W.X.Y.",
"+ @ { Z.{ `.b f.f 1. +.+8.f 6.g f f 8.f # = B { ++= @+#+$+%+E.&+",
"f # = V.U.$ I .+5.*+=+-+;+g.# . # F . # $ >+,+'+)+!+~+{+ .]+^+[ ",
"$ $ % l = # f g S.F C.3 = /+6 # # F # 6 | U.>+(+j - _+b.:+2.].S ",
"% = | F f # # 6.g f $ $ F 6 # # # 6 F f.<+x # .+.+[+@ R F g.6.y.",
"0.j.@ }+z.f # 7.6.|+6 # # # # # = a.{ b b -.S g 1+2+y.N 3+. q y.",
"C.j.s.4+r F # 5 5+T 6+7+. # # $ 8+9+0+<+y # # 6.S.a+b+c+d+S e+f+",
"g+h+i+j+k+j+l+m+n+o+p+q+r+s+t+u+v+r+r+r+w+x+y+z+A+B+C+D+E+F+G+H+",
"I+k+J+K+j+L+J+J+K+k+k+J+L+i+M+i+k+k+J+K+j+L+J+J+K+k+k+J+L+j+N+O+",
"J+P+J+J+K+K+J+K+L+K+P+J+K+L+K+K+J+P+J+J+K+K+J+K+L+K+P+J+K+L+K+K+",
"K+J+J+K+K+L+K+L+L+K+J+K+L+J+J+L+K+J+J+K+K+L+K+L+L+K+J+K+L+J+J+L+",
"L+K+J+K+j+j+L+j+L+L+J+L+j+K+L+j+L+K+J+K+j+j+L+j+L+L+J+L+j+K+L+j+",
"j+L+K+j+j+Q+j+Q+j+L+K+j+Q+L+j+Q+j+L+K+j+j+Q+j+Q+j+L+K+j+Q+L+j+Q+",
"Q+j+j+j+Q+Q+j+Q+Q+j+j+Q+Q+j+j+Q+Q+j+j+j+Q+Q+j+Q+Q+j+j+Q+Q+j+j+Q+",
"Q+Q+j+Q+Q+j+L+j+Q+L+j+Q+Q+j+j+Q+Q+Q+j+Q+Q+j+L+j+Q+L+j+Q+Q+j+j+Q+",
"Q+j+j+Q+Q+j+L+j+j+L+j+j+Q+j+L+Q+Q+j+j+Q+Q+j+L+j+j+L+j+j+Q+j+L+Q+",
"Q+j+L+Q+j+L+L+L+K+K+L+j+Q+j+K+Q+Q+j+L+Q+j+L+L+L+K+K+L+j+Q+j+K+Q+",
"j+L+K+j+L+K+j+Q+L+K+L+j+Q+L+K+Q+j+L+K+j+L+K+j+Q+L+K+L+j+Q+L+K+Q+",
"j+K+K+j+K+j+R+S+j+L+K+L+j+L+K+Q+j+K+K+j+K+j+Q+Q+j+L+K+L+j+L+K+Q+",
"L+K+L+K+L+Q+S+T+Q+j+j+j+L+L+L+L+L+K+L+K+L+Q+Q+^ Q+j+j+j+L+L+L+L+",
"L+L+U+V+W+X+Y+Z+`+L+L+j+j+`+K+ @L+L+.@+@@@#@$@%@&@L+L+j+j+Y+*@Y+"};
