/* XPM */
static char * ext_rdown_xpm[] = {
"32 32 231 2",
"  	c #5E8732",
". 	c #406930",
"+ 	c #3F6C35",
"@ 	c #3D653C",
"# 	c #CFB841",
"$ 	c #C88028",
"% 	c #985818",
"& 	c #618433",
"* 	c #8E6A45",
"= 	c #CEA069",
"- 	c #D4A56C",
"; 	c #2C5729",
"> 	c #A4764E",
", 	c #A1754D",
"' 	c #A3764D",
") 	c #CA9F67",
"! 	c #CFA169",
"~ 	c #755737",
"{ 	c #755336",
"] 	c #56302C",
"^ 	c #745736",
"/ 	c #D3A56C",
"( 	c #C29B64",
"_ 	c #9B7048",
": 	c #A2764E",
"< 	c #2D5829",
"[ 	c #3D5929",
"} 	c #A77B4D",
"| 	c #A5774E",
"1 	c #A77950",
"2 	c #B28457",
"3 	c #406931",
"4 	c #578C46",
"5 	c #3E6531",
"6 	c #683820",
"7 	c #6A3C23",
"8 	c #5C4630",
"9 	c #A3754D",
"0 	c #3B592C",
"a 	c #A0754D",
"b 	c #D3A46B",
"c 	c #D1A36A",
"d 	c #A2764D",
"e 	c #A3764E",
"f 	c #D2A46B",
"g 	c #CDA169",
"h 	c #A17147",
"i 	c #A5764E",
"j 	c #335729",
"k 	c #A4754D",
"l 	c #3E6432",
"m 	c #3B5E34",
"n 	c #445C3B",
"o 	c #594E30",
"p 	c #D6BD42",
"q 	c #C27D2A",
"r 	c #6E7336",
"s 	c #606638",
"t 	c #A37A4D",
"u 	c #745436",
"v 	c #755536",
"w 	c #D1A36B",
"x 	c #C5A065",
"y 	c #A4774E",
"z 	c #698A33",
"A 	c #3F6E39",
"B 	c #3E6639",
"C 	c #7A4722",
"D 	c #7B451E",
"E 	c #BC7724",
"F 	c #989A3A",
"G 	c #A2784D",
"H 	c #A3794D",
"I 	c #A2774D",
"J 	c #977149",
"K 	c #A1774D",
"L 	c #745636",
"M 	c #628832",
"N 	c #88A345",
"O 	c #945D1B",
"P 	c #945D24",
"Q 	c #935920",
"R 	c #78462D",
"S 	c #6D5939",
"T 	c #5C3C2F",
"U 	c #562C2C",
"V 	c #755436",
"W 	c #9B6E48",
"X 	c #745335",
"Y 	c #775436",
"Z 	c #B77221",
"` 	c #98601B",
" .	c #837732",
"..	c #765437",
"+.	c #735436",
"@.	c #5F8832",
"#.	c #715536",
"$.	c #C68028",
"%.	c #BB802E",
"&.	c #978343",
"*.	c #718339",
"=.	c #775B36",
"-.	c #A2814C",
";.	c #735A36",
">.	c #8C6721",
",.	c #886D3F",
"'.	c #8F7344",
").	c #9D714A",
"!.	c #785537",
"~.	c #A1734C",
"{.	c #A2754D",
"].	c #9E784C",
"^.	c #668C33",
"/.	c #6F4127",
"(.	c #674522",
"_.	c #6A3E25",
":.	c #526432",
"<.	c #98622F",
"[.	c #7C6634",
"}.	c #957148",
"|.	c #986D48",
"1.	c #A1744D",
"2.	c #5F8732",
"3.	c #5D8632",
"4.	c #755B37",
"5.	c #768631",
"6.	c #658430",
"7.	c #765436",
"8.	c #7A5739",
"9.	c #745336",
"0.	c #A27249",
"a.	c #A6774C",
"b.	c #765335",
"c.	c #628A32",
"d.	c #A2794D",
"e.	c #795638",
"f.	c #B48859",
"g.	c #916F47",
"h.	c #A3784C",
"i.	c #715436",
"j.	c #646539",
"k.	c #9E754C",
"l.	c #9D784B",
"m.	c #9C734B",
"n.	c #947348",
"o.	c #AD7F54",
"p.	c #572D2C",
"q.	c #572F2C",
"r.	c #897144",
"s.	c #A1764D",
"t.	c #40592D",
"u.	c #D3A46C",
"v.	c #765936",
"w.	c #A4784D",
"x.	c #735936",
"y.	c #745D36",
"z.	c #B39A5A",
"A.	c #34582A",
"B.	c #30582A",
"C.	c #D3A56B",
"D.	c #325C2B",
"E.	c #3D5228",
"F.	c #B8965F",
"G.	c #BF9D61",
"H.	c #A0764D",
"I.	c #2F5929",
"J.	c #977449",
"K.	c #A27B4A",
"L.	c #345E2C",
"M.	c #9F764B",
"N.	c #9A734B",
"O.	c #725D35",
"P.	c #A2824B",
"Q.	c #A2794C",
"R.	c #745536",
"S.	c #56322C",
"T.	c #725936",
"U.	c #CFA369",
"V.	c #D0A36B",
"W.	c #2E5829",
"X.	c #A5774F",
"Y.	c #A3774D",
"Z.	c #D2A36B",
"`.	c #A3754C",
" +	c #CB9D67",
".+	c #CE9F68",
"++	c #7A5738",
"@+	c #775437",
"#+	c #A2744B",
"$+	c #A3744B",
"%+	c #618932",
"&+	c #A2764A",
"*+	c #A97E4D",
"=+	c #775537",
"-+	c #765336",
";+	c #708631",
">+	c #748F34",
",+	c #A77A50",
"'+	c #9F754C",
")+	c #9E784B",
"!+	c #648430",
"~+	c #A8774B",
"{+	c #765536",
"]+	c #A07A4C",
"^+	c #A4784E",
"/+	c #628732",
"(+	c #325C2A",
"_+	c #795536",
":+	c #765736",
"<+	c #345E2A",
"[+	c #2E582A",
"}+	c #A0774C",
"|+	c #A5764D",
"1+	c #A2754E",
"2+	c #A37B4D",
"3+	c #CAA067",
"4+	c #9A744A",
"5+	c #9C754B",
"6+	c #A1794C",
"7+	c #9D754B",
"8+	c #BE9761",
"9+	c #9C794A",
"0+	c #887144",
"a+	c #8F7D45",
"b+	c #6C5935",
"c+	c #98744A",
"d+	c #C09B63",
"e+	c #696C34",
"f+	c #A0804B",
"g+	c #A4764D",
"h+	c #967349",
"  . + @ # $ % & * = - ; > , ' ) ! ~ { ] ^ > / ( _ : < [ } | 1 2 ",
"3   4 5 $ % 6 7 8 9 > ; 0 a , > b c > d a e f g h i , j k { { > ",
"l m n o % 6 p q r > > > s t u > e d > v v > e w x y t > z > { > ",
"A @ B C D p $ E F w > > 1 G d > d H > > { { e I J K L y M > > > ",
"N O % P Q % % R S e > { > T L e d f > > { U V e W X u > Y > { > ",
"6 p p Z % p $ `  .> ..{ > +.^ e - - - > e { V @.  #.{ > { { > > ",
"p p $ % p $ $.%.&.*...{ e =.a e - - - > e > >   -.;.> > > U > V ",
"$ $ % 6 % $.>.,.'.).!.~.{.t t e - - > - > > > > ].^.> > > > > { ",
"/.; (._.:.<.[.}.|.1.2.1.e 3.I > - > > e 4.{ { > 5.6.7.7.{ >     ",
"8.> e u d ..V 9.>   2.{ { 3.e > e > > > d > { V 0.a.b.> > - - 1 ",
"      d d > > V { > > { > e { e I > > - / > -     c.d.> - - e.f.",
"> > e e d - e /       > > > { y 3.> > - > > > a g.K h.> > { i.j.",
"> > e e f > y > > > > > > > > >   > > > > > > e k.{.l.- > { +.m.",
"> 7.9.e e > e e > > > > - e > > > > > > > > > > { 9.n.e - > > > ",
"o.p.u e e > e e > { { > > e e > { { { > e - > > q.L r.s.> > > > ",
"t.7.u f f > u.e > U { > > e > > > { { v.w.- ; < x.y.z.f - - - I ",
"A.B.C.C.e > u.; ; { { - - e > > > > > ^ v > > D.E.F.G.> - - - H.",
"> > I.d d { e e ; ; - - > > > > > > > , > > > J.K.L.M.> { - > N.",
"{ > e d w > > > > > ; > > > { > > > > d { { 9.O.I P.Q.- > > > e ",
"R.> b f H { { { { > > > - > > > > > - f { { S.T.d U.V.y > W.; > ",
"> X.b f d { { U { > - - > U { > > > > c u.> > Y.e b Z.`.> - - > ",
"{ > e b u.- > > > > - - > { { > > { > , e > { { > >  +.+U { - / ",
"++@+e > > > > V { > > - - { > > > > y a , > > { { > #+$+{ { > e ",
"> U { > e y > e { { > > > > - - > -   %+3.> > > U v &+*+> > X.=+",
"{ { {   3.@.> e > U { > > > - > > > e > > > > 9.-+x.;+>+> > y ,+",
"> > >   '+d > e { { {     > > > > > e > > > f d > )+!+~+{+>   > ",
"> > > : '+d > b > > >   > > > > > > d V { > > e > d ]+$+> >   > ",
"e { { e   u > ^+> > > > > { > > - > t ] { > > > { { e /+y > > > ",
"/ > { { a u > ' > { { >   { { > - ; (+L { - - - > +.^ > _+y { { ",
"e > e { a :+- f - > { { > > { { > > <+[+/ - > > e }+^ > $+|+> :+",
"1+e 2+I 3+f - d > > > V > > > > > > 4+5+; > > e 6+e > - 9 k > 7+",
"8+V 9+0+a+< > a e > > > - > > { { { b+c+> > f d+e+f+e > g+> > h+"};
