/* XPM */
static char * ext_rup_xpm[] = {
"32 32 224 2",
"  	c #D4A56C",
". 	c #A4764E",
"+ 	c #A4774E",
"@ 	c #335D2A",
"# 	c #2C5729",
"$ 	c #755336",
"% 	c #A1754D",
"& 	c #A3764D",
"* 	c #D2A46B",
"= 	c #D3A46B",
"- 	c #745636",
"; 	c #562F2C",
"> 	c #745736",
", 	c #D3A56C",
"' 	c #C49D65",
") 	c #9A6E47",
"! 	c #A3764E",
"~ 	c #2D5829",
"{ 	c #3D5929",
"] 	c #A77B4D",
"^ 	c #A87A51",
"/ 	c #BA8C5C",
"( 	c #B68D5B",
"_ 	c #9E754C",
": 	c #A0754D",
"< 	c #D1A36A",
"[ 	c #A2764D",
"} 	c #CDA169",
"| 	c #A17147",
"1 	c #A5764E",
"2 	c #335729",
"3 	c #A4754D",
"4 	c #765436",
"5 	c #9F754C",
"6 	c #A37A4D",
"7 	c #745436",
"8 	c #755536",
"9 	c #D1A36B",
"0 	c #C5A065",
"a 	c #698A33",
"b 	c #735536",
"c 	c #A1774D",
"d 	c #A3794D",
"e 	c #A2774D",
"f 	c #977149",
"g 	c #628832",
"h 	c #775B36",
"i 	c #56362C",
"j 	c #562C2C",
"k 	c #755436",
"l 	c #9B6E48",
"m 	c #745335",
"n 	c #775436",
"o 	c #5E8732",
"p 	c #5F8732",
"q 	c #735436",
"r 	c #562D2C",
"s 	c #5F8832",
"t 	c #715536",
"u 	c #7F5C3C",
"v 	c #A2814C",
"w 	c #735A36",
"x 	c #818C42",
"y 	c #9E784C",
"z 	c #668C33",
"A 	c #745536",
"B 	c #5D8632",
"C 	c #768631",
"D 	c #658430",
"E 	c #765336",
"F 	c #5E8632",
"G 	c #A2754E",
"H 	c #A27249",
"I 	c #A6774C",
"J 	c #765335",
"K 	c #628A32",
"L 	c #A2794D",
"M 	c #A5774F",
"N 	c #A0734C",
"O 	c #A2754D",
"P 	c #C8A066",
"Q 	c #A0774D",
"R 	c #D2A56C",
"S 	c #916F47",
"T 	c #A3784C",
"U 	c #9C734B",
"V 	c #B88A5B",
"W 	c #927A47",
"X 	c #C89B65",
"Y 	c #9F784C",
"Z 	c #9D784B",
"` 	c #785538",
" .	c #785638",
"..	c #745336",
"+.	c #947348",
"@.	c #572F2C",
"#.	c #897144",
"$.	c #A1764D",
"%.	c #30572A",
"&.	c #D3A46C",
"*.	c #A3754E",
"=.	c #765936",
"-.	c #A4784D",
";.	c #31582A",
">.	c #2E5829",
",.	c #735936",
"'.	c #745D36",
").	c #B39A5A",
"!.	c #D0A169",
"~.	c #586A33",
"{.	c #565B30",
"].	c #C99B65",
"^.	c #CA9E66",
"/.	c #9E744C",
"(.	c #A3754D",
"_.	c #CD9F68",
":.	c #305729",
"<.	c #2D5729",
"[.	c #345D2B",
"}.	c #3D5228",
"|.	c #B8965F",
"1.	c #BF9D61",
"2.	c #985818",
"3.	c #683820",
"4.	c #7C5D35",
"5.	c #7E6D40",
"6.	c #3B592C",
"7.	c #977449",
"8.	c #A27B4A",
"9.	c #345E2C",
"0.	c #9F764B",
"a.	c #D6BD42",
"b.	c #C88028",
"c.	c #9D744B",
"d.	c #375A2C",
"e.	c #725D35",
"f.	c #A2824B",
"g.	c #A2794C",
"h.	c #896D3F",
"i.	c #AE8054",
"j.	c #A1744C",
"k.	c #56322C",
"l.	c #725936",
"m.	c #CFA369",
"n.	c #D0A36B",
"o.	c #94AF39",
"p.	c #947B47",
"q.	c #A1764E",
"r.	c #BD925F",
"s.	c #A3774D",
"t.	c #D2A36B",
"u.	c #A3754C",
"v.	c #728239",
"w.	c #4D592F",
"x.	c #7E673F",
"y.	c #BB935E",
"z.	c #CB9D67",
"A.	c #CE9F68",
"B.	c #312952",
"C.	c #6F4027",
"D.	c #C19762",
"E.	c #A2744B",
"F.	c #A3744B",
"G.	c #382028",
"H.	c #5A3973",
"I.	c #76843C",
"J.	c #A0784C",
"K.	c #618932",
"L.	c #A2764A",
"M.	c #A97E4D",
"N.	c #7C5A3A",
"O.	c #868E44",
"P.	c #B88D5B",
"Q.	c #708631",
"R.	c #748F34",
"S.	c #A6784F",
"T.	c #8C613D",
"U.	c #B5945D",
"V.	c #648734",
"W.	c #9E784B",
"X.	c #648430",
"Y.	c #A8774B",
"Z.	c #765536",
"`.	c #946843",
" +	c #A07A4C",
".+	c #4E6231",
"++	c #56302C",
"@+	c #628732",
"#+	c #985918",
"$+	c #4D5B30",
"%+	c #32582A",
"&+	c #335C2A",
"*+	c #795536",
"=+	c #7D593A",
"-+	c #92601D",
";+	c #98601B",
">+	c #406931",
",+	c #382828",
"'+	c #382128",
")+	c #695F37",
"!+	c #355E2A",
"~+	c #2E582A",
"{+	c #A0774C",
"]+	c #A5764D",
"^+	c #795A38",
"/+	c #406945",
"(+	c #588142",
"_+	c #3F6736",
":+	c #825A3A",
"<+	c #9A744A",
"[+	c #9B754B",
"}+	c #A1794C",
"|+	c #9F774C",
"1+	c #406930",
"2+	c #3F6833",
"3+	c #392A29",
"4+	c #926542",
"5+	c #6F5A36",
"6+	c #98744A",
"7+	c #C09B63",
"8+	c #696C34",
"9+	c #A0804B",
"0+	c #A4764D",
"a+	c #967349",
"  . + @ # $ . . .     # . % & * = - $ ; > . , ' ) ! ~ { ] ^ / ( ",
"  . ! _ # $ .     . . # # : % ! = < . [ : ! * } | 1 % 2 3 $ 4 + ",
"    ! 5 . . .     . . . # 6 7 . ! [ . 8 8 . ! 9 0 + 6 . a . $ . ",
". . ! b ! $ . .     . . . c [ . [ d . . $ $ ! e f c - + g . . . ",
". . $ h + $ $ . . . . $ . i - ! [ * . . $ j k ! l m 7 . n . $ . ",
"o p $ q ! $ r $ . . $ $ . q > !       . ! $ k s o t $ . $ $ . . ",
"o ^ u % ! . k $ o o $ $ . h : !       . ! . . o v w . . . j . k ",
". . x [ [ . ! . o . $ . . 6 6 !     .   . . . . y z . . . . . $ ",
". o p 8 A . ! . . . o . ! B e !   . . . $ $ $ . C D 4 4 E . o o ",
"$ . ! 7 [ $ k k . o o $ $ F ! . G . . . ! . $ k H I J . .     . ",
"p o o [ [ . . k $ . . $ . ! $ ! e . .   , .   o o K L .     $ M ",
"+ N O ! [ P Q R o o o . . . $ + B . .   . . . : S c T . . $ $ U ",
"V M _ W X ! Y . . . . . . . . . o . . . . . . ! _ O Z   . $ $ O ",
". `  .% ! . ! ! + . . .   ! . . . . . . . . . . $ ..+.!   . . . ",
". j 7 ! ! . ! ! . $ $ . . ! ! ! $ $ $ . !   . . @.- #.$.. . . M ",
"%.4 7 * * . &.! . j $ . . ! . . *.$ $ =.-.  ;.>.,.'.).* !.    e ",
"~.{.].^./.(._.:.<.$ $     ! . . . ! . > 8 . . [.}.|.1.. =     : ",
"2.2.3.o o 2.4.5.6.<.    . . . . . . . % . . . 7.8.9.0.. $   . ! ",
"a.b.2.o 2.b.2.3.c.. d.. . . $ . . . . [ $ $ ..e.e f.g.  . . . . ",
"a.a.b.2.b.a.a.2.h.M i.j.  . . . . .   * $ $ k.l.[ m.n.+ . >.# . ",
"a.a.a.b.a.a.a.o.p.5 q.r.. j $ . . . . < &.. . s.! = t.u..     . ",
"2.b.b.2.b.a.b.o.v.w.x.y.. $ $ . . $ . % ! . $ $ . . z.A.j E   , ",
"3.2.2.B.2.b.2.o 2.3.C.D.&.$ . . . . + : % . . $ $ . E.F.$ $ M ! ",
"3.2.G.B.B.2.H.b.b.2.I.J.. .     .   o K.B . . . j 8 L.M.. . . N.",
"3.3.G.G.B.B.B.a.a.o.O.P.. .   . . . ! . . . . ..E ,.Q.R.. . . S.",
"G.3.G.G.H.B.a.a.b.o T.U.V.. . . . . ! . . . * [ . W.X.Y.Z.. F . ",
"G.G.G.G.H.B.a.b.2.3.3.`.S.. . . . . [ k $ . . ! . [  +F.. . F % ",
"3.3.G.G.B.G.b.2.3.3.# .+. $ . .   . 6 ++$ . . . $ $ ! @++ . . ! ",
"#+3.G.G.B.G.2.3.b.# 3.$+p $ $ . &.%+&+- $       . q > . *++ $ =+",
"-+;+>+,+'+G.3.b.a.b.3.)+. . $ $ . . !+~+,   . . ! {+> . F.]+. ^+",
"/+(+_+>+,+G.2.a.a.a.2.:+. . . . . *.<+[+# . . ! }+! .   (.3 . |+",
"1+1+1+2+3+G.3.b.a.a.b.4+&.. . =+E $ 5+6+. . * 7+8+9+! . 0+. . a+"};
