/* XPM */
static char * ext_lup_xpm[] = {
"32 32 228 2",
"  	c #C99C65",
". 	c #A77A51",
"+ 	c #A67950",
"@ 	c #72703F",
"# 	c #3F5A2D",
"$ 	c #775437",
"% 	c #A4764E",
"& 	c #D4A56C",
"* 	c #2C5729",
"= 	c #A1754D",
"- 	c #A3764D",
"; 	c #D3A46B",
"> 	c #745636",
", 	c #755336",
"' 	c #562F2C",
") 	c #745736",
"! 	c #D3A56C",
"~ 	c #C49D65",
"{ 	c #9A6E47",
"] 	c #A3764E",
"^ 	c #2D5829",
"/ 	c #3D5929",
"( 	c #A77B4D",
"_ 	c #CB9D67",
": 	c #9E754C",
"< 	c #A0754D",
"[ 	c #D1A36A",
"} 	c #A2764D",
"| 	c #D2A46B",
"1 	c #CDA169",
"2 	c #A17147",
"3 	c #A5764E",
"4 	c #335729",
"5 	c #A4754D",
"6 	c #9F754C",
"7 	c #A37A4D",
"8 	c #745436",
"9 	c #755536",
"0 	c #D1A36B",
"a 	c #C5A065",
"b 	c #A4774E",
"c 	c #698A33",
"d 	c #735536",
"e 	c #A1774D",
"f 	c #A3794D",
"g 	c #A2774D",
"h 	c #977149",
"i 	c #628832",
"j 	c #775B36",
"k 	c #56362C",
"l 	c #562C2C",
"m 	c #755436",
"n 	c #9B6E48",
"o 	c #745335",
"p 	c #775436",
"q 	c #5E8732",
"r 	c #735436",
"s 	c #A1744D",
"t 	c #765336",
"u 	c #58302D",
"v 	c #775537",
"w 	c #7B5839",
"x 	c #5F8832",
"y 	c #715536",
"z 	c #A5774F",
"A 	c #765436",
"B 	c #A2814C",
"C 	c #735A36",
"D 	c #638834",
"E 	c #9E784C",
"F 	c #668C33",
"G 	c #5F8733",
"H 	c #755537",
"I 	c #745536",
"J 	c #5D8632",
"K 	c #768631",
"L 	c #658430",
"M 	c #5F8732",
"N 	c #785638",
"O 	c #A27249",
"P 	c #A6774C",
"Q 	c #765335",
"R 	c #667E34",
"S 	c #7E5A3B",
"T 	c #A3774D",
"U 	c #628A32",
"V 	c #A2794D",
"W 	c #9F734C",
"X 	c #9C744A",
"Y 	c #A0774C",
"Z 	c #CA9D66",
"` 	c #916F47",
" .	c #A3784C",
"..	c #947A47",
"+.	c #9D754B",
"@.	c #A2754D",
"#.	c #9D784B",
"$.	c #745336",
"%.	c #9D724B",
"&.	c #947348",
"*.	c #9B714A",
"=.	c #A2744D",
"-.	c #795638",
";.	c #572F2C",
">.	c #897144",
",.	c #A1764D",
"'.	c #33572A",
").	c #D2A36B",
"!.	c #9C714A",
"~.	c #79523A",
"{.	c #7C583A",
"].	c #8C6442",
"^.	c #765936",
"/.	c #A4784D",
"(.	c #735936",
"_.	c #745D36",
":.	c #B39A5A",
"<.	c #2F572A",
"[.	c #2D5729",
"}.	c #D3A56B",
"|.	c #D3A46C",
"1.	c #38572B",
"2.	c #835E3D",
"3.	c #896341",
"4.	c #765536",
"5.	c #325C2B",
"6.	c #3D5228",
"7.	c #B8965F",
"8.	c #BF9D61",
"9.	c #2F5929",
"0.	c #39592C",
"a.	c #977449",
"b.	c #A27B4A",
"c.	c #355E2C",
"d.	c #9F764B",
"e.	c #A3754E",
"f.	c #765437",
"g.	c #435D2F",
"h.	c #A3774E",
"i.	c #725D35",
"j.	c #A1814B",
"k.	c #9F784B",
"l.	c #C79B65",
"m.	c #A0764C",
"n.	c #9E744C",
"o.	c #977048",
"p.	c #AA7C52",
"q.	c #56322C",
"r.	c #765B38",
"s.	c #9D7149",
"t.	c #845A38",
"u.	c #925824",
"v.	c #628233",
"w.	c #985818",
"x.	c #683820",
"y.	c #A6784F",
"z.	c #562D2C",
"A.	c #966A44",
"B.	c #805435",
"C.	c #D6BD42",
"D.	c #C88028",
"E.	c #AA7D52",
"F.	c #794F31",
"G.	c #AE8155",
"H.	c #A0734C",
"I.	c #896240",
"J.	c #5E6C37",
"K.	c #5D342F",
"L.	c #835E3E",
"M.	c #A3754D",
"N.	c #896042",
"O.	c #658833",
"P.	c #9E774C",
"Q.	c #312952",
"R.	c #986E49",
"S.	c #59302D",
"T.	c #9C794A",
"U.	c #5A3973",
"V.	c #738239",
"W.	c #A2764E",
"X.	c #7A5739",
"Y.	c #CEA168",
"Z.	c #94AF39",
"`.	c #382028",
" +	c #A5774E",
".+	c #9F774C",
"++	c #795738",
"@+	c #A2754E",
"#+	c #A4784E",
"$+	c #57322D",
"%+	c #746431",
"&+	c #693B22",
"*+	c #345C2A",
"=+	c #765737",
"-+	c #BB995F",
";+	c #766E3E",
">+	c #966D48",
",+	c #A0744D",
"'+	c #8A6441",
")+	c #765736",
"!+	c #5A6334",
"~+	c #445B2E",
"{+	c #A37C4D",
"]+	c #80803F",
"^+	c #86603F",
"/+	c #A27A4D",
"(+	c #A57B4F",
"_+	c #CAA067",
":+	c #845F3E",
"<+	c #A1744C",
"[+	c #9A744A",
"}+	c #9A764A",
"|+	c #938349",
"1+	c #98A040",
"2+	c #392C29",
"3+	c #977649",
"4+	c #847043",
"5+	c #8F7D45",
"6+	c #34592A",
"7+	c #A2774E",
"8+	c #A98053",
"9+	c #D0A16A",
"0+	c #6C5935",
"a+	c #98744A",
"b+	c #CB9F67",
"c+	c #BC7D29",
"d+	c #D5BC42",
"e+	c #385F4B",
"  . + @ # $ % % % & & * % = - & ; > , ' ) % ! ~ { ] ^ / ( % % % ",
"_ % ] : * , % & & % % * * < = % ; [ % } < ] | 1 2 3 = 4 5 , , % ",
"& & ] 6 % % % & & % % % * 7 8 % ] } % 9 9 % ] 0 a b 7 % c % , % ",
"% % ] d ] , % % & & % % % e } % } f % % , , ] g h e > b i % % % ",
"% % , j b , , % % % % , % k > ] } | % % , l m ] n o 8 % p % , % ",
"q q , r s t u v % % w , % r ) ] & & & % ] , m x q y , % , , % % ",
"q z v = ] % m , q q A , % j < ] & & & % ] % % q B C % % % l % m ",
"% % D } } % ] % q % , % % 7 7 ] & & % & % % % % E F % % % % % , ",
"% q G H I % b % % % q % % J g % & % % % , , , % K L A A , % q M ",
", % ] N } t m m % q q , , J ] % ] % % % ] % , m O P Q % % & & % ",
"q q R S = ] % m , % % , % ] , ] T % % & ! % & q q U V % & & , b ",
"% % W X Y Z ] ! q q q % % % , b J % % & % % % < ` e  .% % , , % ",
"% % ] ..+.g b % % % % % % % % % q % % % % % % ] : @.#.& % , , % ",
"% , $.@.%.- ] ] % % % ] & ] % % % % % % % % % % , $.&.] & % % % ",
"% l 8 ] ] % ] *.=.-.$ % % ] ] % , , , % ] & % % ;.> >.,.% % % % ",
"'., 8 | | % ).!.~.{.].% % ] % % % , , ^./.& * ^ (._.:.| & & & T ",
"<.[.}.}.] % |.[.1.2.3.& & ] % % % % % ) 4.% % 5.6.7.8.% & & & < ",
"] % 9.} } , ] ] [.0.& & % % % % % % % = % % % a.b.c.d.e., & % ] ",
"f.% ] } 0 % % % % % g.% % % , % % % % h., , $.i.g j.k.l.m.} n.o.",
", % ; | f , , , , % p.% & % % % % % & | , , q.r.s.t.u.v.w.w.w.x.",
"% y.; | } , A z., % |.& % l , % % % % [ |.% ] A.B.w.C.w.C.D.D.w.",
", % E.; |.& ] ] % % & & % , , % % , % = ] % A F.w.C.C.D.C.C.C.D.",
", -.G.% % % H.I., % % & & , % % % % b < = % } J.x.D.C.C.D.D.D.w.",
"% K.L.@.] b M.N.A A % % % % & & % & q O.J % P.x.x.w.D.C.w.D.w.Q.",
"A A $ R J x % R.] S.N % % % & % % % ] % % % - T.x.x.w.D.U.w.Q.Q.",
"% % H.V.6 } % W.w , X.q q % % z % % ] % % % Y.T.Z.Z.D.C.Q.Q.Q.`.",
" +% % .+6 } % ).%  +b q % % % % % % } m , % ] T.q q Z.C.C.Q.U.`.",
"] v ++@+M 8 % #+% e.H.% % , % % & % 7 $+, % } %+&+x.w.D.C.Q.U.`.",
"_ % A $ < 8 % - % f., % q , , % & * *+=+, & ! -+;+x.x.w.D.`.Q.`.",
">+] ,+'+< )+& | & % $ v % % , , % % !+~+! & % {+]+D.w.x.w.`.Q.`.",
"^+@./+(+_+| |.} % % ] :+% % % % % <+[+}+* % % |+1+C.D.w.x.`.`.2+",
"X.H.3+4+5+6+% 7+8+] ] % 9+% % $ t , 0+a+% % b+c+d+C.C.D.w.2+`.e+"};
