/* XPM */
static char * ext_right_xpm[] = {
"32 32 224 2",
"  	c #5E8732",
". 	c #406930",
"+ 	c #3E663A",
"@ 	c #985818",
"# 	c #683820",
"$ 	c #D5BC42",
"% 	c #C17E33",
"& 	c #9F8E47",
"* 	c #C9A166",
"= 	c #D1A36B",
"- 	c #2C5729",
"; 	c #A4764E",
"> 	c #A2764D",
", 	c #CEA269",
"' 	c #D4A56C",
") 	c #755336",
"! 	c #562C2C",
"~ 	c #755436",
"{ 	c #A4774E",
"] 	c #A3764E",
"^ 	c #2D5829",
"/ 	c #406830",
"( 	c #D6BD42",
"_ 	c #C8812B",
": 	c #A2672F",
"< 	c #B87B3D",
"[ 	c #9D734B",
"} 	c #A3794D",
"| 	c #D3A56C",
"1 	c #A1754D",
"2 	c #3F6631",
"3 	c #C88028",
"4 	c #995A1C",
"5 	c #CB8B43",
"6 	c #A27046",
"7 	c #A3754D",
"8 	c #9C754B",
"9 	c #765836",
"0 	c #745336",
"a 	c #A37A4D",
"b 	c #406A31",
"c 	c #3F6831",
"d 	c #96AB3B",
"e 	c #C2A85F",
"f 	c #D2A46B",
"g 	c #A2754D",
"h 	c #9B744B",
"i 	c #A1764D",
"j 	c #745636",
"k 	c #90AB39",
"l 	c #3F6834",
"m 	c #9A5F29",
"n 	c #9E784B",
"o 	c #55332C",
"p 	c #745436",
"q 	c #5B8233",
"r 	c #3F6731",
"s 	c #975818",
"t 	c #657C33",
"u 	c #9E744C",
"v 	c #725536",
"w 	c #D3A46C",
"x 	c #A4784E",
"y 	c #5E8733",
"z 	c #3E6531",
"A 	c #6A3D24",
"B 	c #567F30",
"C 	c #735436",
"D 	c #C67F2C",
"E 	c #A0754D",
"F 	c #A27D4C",
"G 	c #683A20",
"H 	c #9E9047",
"I 	c #A2774D",
"J 	c #A37B4D",
"K 	c #9C794B",
"L 	c #94571E",
"M 	c #9C6E48",
"N 	c #A1774D",
"O 	c #99744A",
"P 	c #3F6833",
"Q 	c #6B3E25",
"R 	c #715535",
"S 	c #977449",
"T 	c #94AF39",
"U 	c #3F6830",
"V 	c #A0AE44",
"W 	c #698E33",
"X 	c #967349",
"Y 	c #5E8632",
"Z 	c #3F6736",
"` 	c #658634",
" .	c #8C7D44",
"..	c #997A49",
"+.	c #5C8536",
"@.	c #C5B13F",
"#.	c #693921",
"$.	c #7A4D30",
"%.	c #9C6F49",
"&.	c #9B794A",
"*.	c #A0784C",
"=.	c #947348",
"-.	c #3E6432",
";.	c #6B3B22",
">.	c #6A6D3B",
",.	c #716035",
"'.	c #9D754B",
").	c #6F5735",
"!.	c #897144",
"~.	c #3F6735",
"{.	c #99591B",
"].	c #9A5E27",
"^.	c #917C46",
"/.	c #5B3E2D",
"(.	c #745736",
"_.	c #765936",
":.	c #735A36",
"<.	c #B39A5B",
"[.	c #3F6835",
"}.	c #8B5C1F",
"|.	c #D6BC44",
"1.	c #A97528",
"2.	c #4B6C2C",
"3.	c #725335",
"4.	c #9F784C",
"5.	c #A3774D",
"6.	c #B99760",
"7.	c #C09E62",
"8.	c #3E6532",
"9.	c #C27E32",
"0.	c #5A5725",
"a.	c #345829",
"b.	c #D3A46B",
"c.	c #A3764D",
"d.	c #A37D4C",
"e.	c #345E2C",
"f.	c #A0774C",
"g.	c #975819",
"h.	c #995A1D",
"i.	c #BB7C3B",
"j.	c #A3744B",
"k.	c #9E754C",
"l.	c #A2814B",
"m.	c #406931",
"n.	c #5E8834",
"o.	c #90AA3A",
"p.	c #985819",
"q.	c #693C23",
"r.	c #5E5F33",
"s.	c #9C734B",
"t.	c #98744A",
"u.	c #D0A36A",
"v.	c #D1A46A",
"w.	c #5D8633",
"x.	c #C27D29",
"y.	c #7E8B34",
"z.	c #7B6C37",
"A.	c #A1844A",
"B.	c #CFB941",
"C.	c #D6BC43",
"D.	c #98A23F",
"E.	c #987A49",
"F.	c #99724A",
"G.	c #C99F67",
"H.	c #725C35",
"I.	c #CFB841",
"J.	c #C7802A",
"K.	c #9C6332",
"L.	c #734F33",
"M.	c #745134",
"N.	c #9D6F49",
"O.	c #72442A",
"P.	c #875A3A",
"Q.	c #6A5935",
"R.	c #98591B",
"S.	c #9A5E28",
"T.	c #907C46",
"U.	c #5B3D2D",
"V.	c #755536",
"W.	c #735936",
"X.	c #5D8632",
"Y.	c #D3B943",
"Z.	c #BA7C3C",
"`.	c #7B6A37",
" +	c #8F7247",
".+	c #CEB344",
"++	c #D19C5F",
"@+	c #A4754D",
"#+	c #AA784A",
"$+	c #7A6F3F",
"%+	c #8E651F",
"&+	c #C37F2F",
"*+	c #A16F44",
"=+	c #A5764E",
"-+	c #A27249",
";+	c #562F2C",
">+	c #40693A",
",+	c #995C22",
"'+	c #9F8B48",
")+	c #9F754C",
"!+	c #CAA067",
"~+	c #305B2A",
"{+	c #3E6639",
"]+	c #C2AF3F",
"^+	c #C98534",
"/+	c #C6955E",
"(+	c #9F744C",
"_+	c #6E5735",
":+	c #8E7246",
"<+	c #2E5829",
"[+	c #765736",
"}+	c #A1652C",
"|+	c #977A48",
"1+	c #8D7246",
"2+	c #756E3E",
"3+	c #9A744A",
"4+	c #406832",
"5+	c #3E6631",
"6+	c #704228",
"7+	c #966944",
"8+	c #4D6531",
"9+	c #685A34",
"0+	c #C59D65",
"a+	c #6D5835",
"  . + @ # @ $ % & * = - ; ; > , ' ) ) ! ~ ; ' ' { ] ^ - ; ; ; ; ",
".     / @ ( ( _ : < [ - - > ] } | ' ] ; ; ; ' ' ] ; 1 - ; ) ) ; ",
"/ .   2 @ ( 3 4 5 6 7 > - 8 9 ; ] ; ] 0 ) ; ; ' | ; a ;   ; ) ; ",
"/ . b . c 3 @ d e f > g ; h } ; ] ; ] i ) ) ; ; ; ] j ;   ; ; ; ",
"k   / . l ( 3 m n ; ; ) ; o p ; ] ' ] > ) ! ) ; ; p p ; ) ; ) ; ",
"q . . r ( 3 s t u ; ) ) ; v 0 ] w ' | x ; ) )     0 ) ; ) ) ; ; ",
"y .   z 3 @ # A B   ) ) ; C > 1 ' ' ' ] ] ] ;   ; ~ ; ; ; ! ; ) ",
".   . r @ # ( D   } ) ; ; > E F ' ' ; | ] ] ; ; ;   ; ; ; ; ; ) ",
".   . 2 G ( 3 D H I   ; ;   J K ' ; ; ; ~ ) ) ;     ) ) ) ;     ",
". . / . l 3 3 L M     ) )   N O ; ; ; ; ; ; ) ) ; ; ) ; ; ' ' ; ",
". . . . P @ @ Q R ; ; ) ; ; p S ] ; ; | ' ; '       ] ; ' ' ) ; ",
". . T   U ( 3 V W     ; ; ; 0 X Y ; ; ' ; ; ; ; ; ; } ; ; ) ) ; ",
". T   Z $ ( T `  .g ; ; ; ; ] ..  ; ; ; ; ; ; ; ; ; n ' ; ) ) ; ",
". T +.@.( 3 @ #.$.%.; ; ' ; ; &.*.; ; ; ; ; ; ; ) 0 =.] ' ; ; ; ",
".   -.( 3 @ # ;.>.,.~ ; ; ; ; '.).) ) ; ; ' ; ; ! j !.i ; ; ; ; ",
"  . ~.3 @ # {.].^./.(.; ; ; ; > X _.~ ) ; ' - - ) :.<.f ' ' ' I ",
"    [.}.# @ |.1.2.(.3.' ' ; ; ; 4.5.] ~ ) ; ; - - 6.7.; ' ' ' E ",
"  . . 8.@ ( $ 9.0.a.b.' ] ; ; ; I I > c.; ; ] i d.e.f.; ) ' ; ] ",
". . . r g.( 3 h.i.j.- ; > ; ) ; ] k.> I ) ) ) ) 5.l.> ' ; ; ; ; ",
". m.n.T o.@ p.q.r.s.] ] = ; ; ; 1 t.w u.) ) ! 0 > v.w ; ; - - ; ",
". . .   w.( x.y.z.N u.f I ! ) ; a A.> f ' ; { { ] ' ' ; ; ' ' ; ",
"T T . / B.C.D.E.N F.G.f > ) ) ; ] H.] ] ; ; ) ) ; ; ' ' ! ) ' | ",
"    8.I.( J.K.L.M.N.'.b.b.) ; ; ] E ; ; ; ; ; ) ) ; ] ; ) ) ; ] ",
"  . 8.( 3 p.O.P.Q.(.N ] ] ; ' ' ; f       ; ; ; ! ~ k.; ; ; ; ) ",
". T k 3 @ # R.S.T.U.V.; ; ; ' ; ] k.] ; ; ; ] ) ) W.    ; ; ; ; ",
". . X.@ # @ Y.Z.`.j 0     ; ; ; ] =. +1 ; ; | ; ; n   ; ) ;   ; ",
". . . X.@ $ .+++@+#+1   ; ; { ] ] X $+C ) ; ] ; ; > 1 ; ; ;   ; ",
". . / r %+( &+*+=+-+] ; ; ) x 1 u.k.!.;+) ; ; ; ) ) ]   ; ; ; ; ",
"T . 2 . >+3 ,+'+x W.) ;   ~ C )+!+^ ~+0 ) ' w ' ; C (.; ) ; ) ) ",
"  T . . {+]+^+/+| (+) ) ; 1 p _+:+k.^ <+' ' > > ] f.(.; ; ; ; [+",
".   . m.$ 3 }+|+; > ] ) ; E i 1+2+3+] ; - ] > E 1 ] ; ' ; ; ; '.",
"4+/ b 5+3 @ 6+7+] ] E ; | > k.r.8+9+~ ; ; ] | 0+a+> ] ; ; ; ; X "};
