/* XPM */
static char * ext_ldown_xpm[] = {
"32 32 186 2",
"  	c #CC9F67",
". 	c #A4764E",
"+ 	c #A4774E",
"@ 	c #335D2A",
"# 	c #2C5729",
"$ 	c #755336",
"% 	c #D4A56C",
"& 	c #2D5729",
"* 	c #A1754D",
"= 	c #A3764D",
"- 	c #D3A46B",
"; 	c #755736",
"> 	c #765437",
", 	c #57302C",
"' 	c #745736",
") 	c #D2A46B",
"! 	c #B6905C",
"~ 	c #985818",
"{ 	c #C88028",
"] 	c #D6BD42",
"^ 	c #3D6332",
"/ 	c #3E6532",
"( 	c #3F6834",
"_ 	c #3E663A",
": 	c #C69964",
"< 	c #A3764E",
"[ 	c #9E754C",
"} 	c #A0754D",
"| 	c #D1A36A",
"1 	c #A2764D",
"2 	c #CBA068",
"3 	c #7C6D3D",
"4 	c #3F6736",
"5 	c #3F6C36",
"6 	c #406932",
"7 	c #5B8339",
"8 	c #D3A46C",
"9 	c #9F754C",
"0 	c #A37A4D",
"a 	c #745536",
"b 	c #A5774F",
"c 	c #755536",
"d 	c #D1A36B",
"e 	c #B38E59",
"f 	c #683820",
"g 	c #3F6D36",
"h 	c #5C8538",
"i 	c #735536",
"j 	c #A1774D",
"k 	c #A87A51",
"l 	c #A3794D",
"m 	c #A2774D",
"n 	c #957148",
"o 	c #786D3F",
"p 	c #96581D",
"q 	c #775B36",
"r 	c #57372C",
"s 	c #745636",
"t 	c #A3774D",
"u 	c #562C2C",
"v 	c #755436",
"w 	c #9B6E48",
"x 	c #8C6742",
"y 	c #6D8338",
"z 	c #617636",
"A 	c #6B8938",
"B 	c #735436",
"C 	c #562D2C",
"D 	c #755637",
"E 	c #5F8832",
"F 	c #5E8732",
"G 	c #725536",
"H 	c #746E3E",
"I 	c #925720",
"J 	c #693B23",
"K 	c #406930",
"L 	c #6D8538",
"M 	c #A77A50",
"N 	c #765336",
"O 	c #A3754E",
"P 	c #80603B",
"Q 	c #A2814C",
"R 	c #735A36",
"S 	c #A2754D",
"T 	c #A2744D",
"U 	c #6A4535",
"V 	c #8A7042",
"W 	c #5F8732",
"X 	c #A2784D",
"Y 	c #A1794D",
"Z 	c #A2764E",
"` 	c #9E784C",
" .	c #668C33",
"..	c #A5774E",
"+.	c #785538",
"@.	c #745436",
"#.	c #5D8632",
"$.	c #9F764C",
"%.	c #A3754D",
"&.	c #768631",
"*.	c #658430",
"=.	c #765436",
"-.	c #A27249",
";.	c #A6774C",
">.	c #765335",
",.	c #CEA369",
"'.	c #628A32",
").	c #A2794D",
"!.	c #D3A56C",
"~.	c #916F47",
"{.	c #A3784C",
"].	c #9D784B",
"^.	c #745336",
"/.	c #947348",
"(.	c #582E2D",
"_.	c #572F2C",
":.	c #897144",
"<.	c #A1764D",
"[.	c #765936",
"}.	c #A4784D",
"|.	c #2D5829",
"1.	c #735936",
"2.	c #745D36",
"3.	c #B39A5A",
"4.	c #D3A56B",
"5.	c #325C2B",
"6.	c #3D5228",
"7.	c #B8965F",
"8.	c #BF9D61",
"9.	c #2E5929",
"0.	c #977449",
"a.	c #A27B4A",
"b.	c #345E2C",
"c.	c #9F764B",
"d.	c #725D35",
"e.	c #A2824B",
"f.	c #A2794C",
"g.	c #56322C",
"h.	c #725936",
"i.	c #CFA369",
"j.	c #D0A36B",
"k.	c #2E5829",
"l.	c #D2A36B",
"m.	c #A3754C",
"n.	c #CB9D67",
"o.	c #CE9F68",
"p.	c #A2744B",
"q.	c #A3744B",
"r.	c #618932",
"s.	c #A2764A",
"t.	c #A97E4D",
"u.	c #708631",
"v.	c #748F34",
"w.	c #9E784B",
"x.	c #648430",
"y.	c #A8774B",
"z.	c #765536",
"A.	c #A5784F",
"B.	c #A07A4C",
"C.	c #A4784E",
"D.	c #56302C",
"E.	c #628732",
"F.	c #325C2A",
"G.	c #795536",
"H.	c #765736",
"I.	c #345E2A",
"J.	c #2E582A",
"K.	c #A0774C",
"L.	c #A5764D",
"M.	c #A37B4D",
"N.	c #CAA067",
"O.	c #9A744A",
"P.	c #9C754B",
"Q.	c #A1794C",
"R.	c #A4754D",
"S.	c #9D754B",
"T.	c #9C794A",
"U.	c #887144",
"V.	c #8F7D45",
"W.	c #6C5935",
"X.	c #98744A",
"Y.	c #C09B63",
"Z.	c #696C34",
"`.	c #A0804B",
" +	c #A4764D",
".+	c #967349",
"  . + @ # $ . . . % % & . * = % - ; > , ' . ) ! ~ { { ] ^ / ( _ ",
": . < [ # $ . % % . . # # } * . - | . 1 } < ) 2 3 ~ { { 4 5 6 7 ",
"8 % < 9 . . . % % . . . # 0 a b < 1 . c c . < d e f f ~ ~ g h ~ ",
". . < i < $ . . % % . . . j 1 k 1 l . . $ $ < m n o p { ] ~ ~ ] ",
"< . $ q + $ $ . . . . $ . r s < t ) . . $ u v < w x y ~ { f ~ { ",
"z A $ B < $ C $ . . $ $ . D ' < 8 % % . < $ v E F G i H I J K f ",
"L M N * < . v $ F F $ $ O P } < % % % . < . . F Q R . S T U [ V ",
". . W 1 1 . < . F . $ . . X Y Z % % . % . . . . `  .. . . . ..+.",
". F F @.a . + . . . F . . #.$.%.% . . . $ $ $ . &.*.=.=.$ . F F ",
"> . < @.1 $ v v . F F $ $ #.< . < . . . < . $ v -.;.>.. . % % . ",
"W F F 1 1 . . v $ . . $ . < $ < t . . ) ,.< % F F '.).. % % $ . ",
". . < < 1 % < !.F F F . . . $ + #.. . % . . . } ~.j {.. . $ $ . ",
". . < < ) . + . . . . . . . . . F . . . . . . < [ S ].% . $ $ . ",
". > v < < . < < . . . . % < . . . . . . . . . . $ ^./.< % . . . ",
". (.@.< < . < < . $ $ . . < < . $ $ $ . < % . . _.s :.<.. . . . ",
"# $ @.) ) . 8 < . u $ . . < . . . $ $ [.}.% # |.1.2.3.) % % % t ",
"# # 4.4.< . 8 # # $ $ % % < . . . . . ' c . . 5.6.7.8.. % % % } ",
". . 9.1 1 $ < < # # % % . . . . . . . * . . . 0.a.b.c.. $ % . < ",
"$ . < 1 d . . . . . # . . . $ . . . . 1 $ $ ^.d.m e.f.% . . . . ",
"$ . - ) l $ $ $ $ . . . % . . . . . % ) $ $ g.h.1 i.j.+ . k.# . ",
". . - ) 1 $ $ u $ . % % . u $ . . . . | 8 . . t < - l.m.. % % . ",
"$ . < - 8 % . . . . % % . $ $ . . $ . * < . $ $ . . n.o.u $ % !.",
"$ $ < . . . . v $ . . % % $ . . . . + } * . . $ $ . p.q.$ $ . < ",
". u $ . < + . < $ $ . . . . % 8 . % F r.#.. . . u c s.t.. . . N ",
"$ $ $ F #.E . < . u $ . . . % . . . < . . . . ^.N 1.u.v.. . . . ",
". . . F 9 1 . < $ $ =.F F . . . . . < . . . ) 1 . w.x.y.z.. F . ",
". . . 1 9 1 . - . A.. F . . . . . . 1 v $ . . < . 1 B.q.. . F . ",
"< $ $ < F v . C.. . . . . $ . . % . 0 D.$ . . . $ $ < E.+ . . . ",
"!.. $ $ } @.. = . $ $ . F $ $ . % # F.s $ % % % . B ' . G.+ $ $ ",
"< . < $ } H.% ) % . $ $ . . $ $ . . I.J.!.% . . < K.' . q.L.. H.",
"< < M.m N.) % 1 . . . v . . . . . . O.P.# . . < Q.< . % %.R.. S.",
"- v T.U.V.|.. } < . . . % . . $ $ $ W.X.. . ) Y.Z.`.< .  +. . .+"};
