/* XPM */
static char * ext_down_xpm[] = {
"32 32 373 2",
"  	c #5E8732",
". 	c #406931",
"+ 	c #406930",
"@ 	c #3F6731",
"# 	c #406832",
"$ 	c #406932",
"% 	c #406933",
"& 	c #3F6833",
"* 	c #94AE39",
"= 	c #93AE3A",
"- 	c #94AF39",
"; 	c #406830",
"> 	c #90AA3A",
", 	c #3E6532",
"' 	c #5D8632",
") 	c #3F6835",
"! 	c #92AD3B",
"~ 	c #5B8233",
"{ 	c #5C8533",
"] 	c #5B8338",
"^ 	c #92AD39",
"/ 	c #5D8533",
"( 	c #5E8836",
"_ 	c #3F6831",
": 	c #5C8536",
"< 	c #985818",
"[ 	c #85A045",
"} 	c #5B8339",
"| 	c #40693A",
"1 	c #8DA73F",
"2 	c #5D8837",
"3 	c #3E6737",
"4 	c #975919",
"5 	c #5D8535",
"6 	c #D6BD42",
"7 	c #C88028",
"8 	c #985D1A",
"9 	c #406B33",
"0 	c #91AC3C",
"a 	c #945D1B",
"b 	c #406A31",
"c 	c #683820",
"d 	c #2C5729",
"e 	c #76492C",
"f 	c #877949",
"g 	c #456931",
"h 	c #98591C",
"i 	c #965B1A",
"j 	c #6D3E25",
"k 	c #995B20",
"l 	c #704227",
"m 	c #714329",
"n 	c #724429",
"o 	c #99794B",
"p 	c #8E623F",
"q 	c #9F9351",
"r 	c #405A2D",
"s 	c #6E4026",
"t 	c #596F38",
"u 	c #9E6127",
"v 	c #75492C",
"w 	c #6D3F25",
"x 	c #7A7A44",
"y 	c #88613B",
"z 	c #97924D",
"A 	c #6B3C23",
"B 	c #726E40",
"C 	c #6B3B22",
"D 	c #764A2D",
"E 	c #AA8956",
"F 	c #BF9A61",
"G 	c #C39B64",
"H 	c #99744A",
"I 	c #8D6C44",
"J 	c #807D3F",
"K 	c #7C813D",
"L 	c #9F774C",
"M 	c #9C7349",
"N 	c #7F613B",
"O 	c #7D853F",
"P 	c #97754A",
"Q 	c #9B744B",
"R 	c #987F47",
"S 	c #9C7C4A",
"T 	c #706B3A",
"U 	c #837545",
"V 	c #8E7444",
"W 	c #7F783C",
"X 	c #77723B",
"Y 	c #8E7144",
"Z 	c #7A5E3A",
"` 	c #7D5F3B",
" .	c #977248",
"..	c #8A7142",
"+.	c #997D4B",
"@.	c #A37C4F",
"#.	c #A27B4F",
"$.	c #B78F5C",
"%.	c #A47D51",
"&.	c #9B824E",
"*.	c #9F8D52",
"=.	c #CEA169",
"-.	c #CB9E67",
";.	c #AB7E53",
">.	c #9E724B",
",.	c #7B593A",
"'.	c #785C38",
").	c #9D754B",
"!.	c #A1744C",
"~.	c #7E5A3B",
"{.	c #83603E",
"].	c #C29862",
"^.	c #A77A50",
"/.	c #A4764E",
"(.	c #A3794F",
"_.	c #656538",
":.	c #9A734A",
"<.	c #9F734C",
"[.	c #765838",
"}.	c #654732",
"|.	c #9C714A",
"1.	c #825D3C",
"2.	c #A3764E",
"3.	c #A4784F",
"4.	c #C49763",
"5.	c #A97B51",
"6.	c #CC9E68",
"7.	c #AC7F53",
"8.	c #A87B51",
"9.	c #C99C66",
"0.	c #A67950",
"a.	c #7C573A",
"b.	c #623C30",
"c.	c #7C583A",
"d.	c #9F724B",
"e.	c #A5774F",
"f.	c #A87A51",
"g.	c #CA9B66",
"h.	c #C69A64",
"i.	c #A5784F",
"j.	c #A0734C",
"k.	c #7A5638",
"l.	c #795538",
"m.	c #A4774F",
"n.	c #A2744D",
"o.	c #A0774C",
"p.	c #A4774E",
"q.	c #A1744D",
"r.	c #CB9D67",
"s.	c #CD9E68",
"t.	c #A4794F",
"u.	c #A87A50",
"v.	c #7B5B3A",
"w.	c #9B714A",
"x.	c #7E5B3A",
"y.	c #7A5738",
"z.	c #9D724B",
"A.	c #835D3D",
"B.	c #CA9C66",
"C.	c #AC7E53",
"D.	c #A77A51",
"E.	c #A3784D",
"F.	c #825F3D",
"G.	c #8A6641",
"H.	c #C69865",
"I.	c #9D774B",
"J.	c #76833B",
"K.	c #A1784C",
"L.	c #886541",
"M.	c #C09862",
"N.	c #6B673B",
"O.	c #9E744C",
"P.	c #654032",
"Q.	c #9B704A",
"R.	c #815E3C",
"S.	c #C79964",
"T.	c #7E5E3A",
"U.	c #7D5D3A",
"V.	c #9E734C",
"W.	c #A4784E",
"X.	c #CB9D66",
"Y.	c #9C774B",
"Z.	c #6F8638",
"`.	c #A0784C",
" +	c #7C593A",
".+	c #664332",
"++	c #6D5635",
"@+	c #5C6336",
"#+	c #927147",
"$+	c #967249",
"%+	c #795638",
"&+	c #CE9F68",
"*+	c #B08256",
"=+	c #7E593A",
"-+	c #7A873E",
";+	c #A0784D",
">+	c #9F744C",
",+	c #997349",
"'+	c #4B5E2F",
")+	c #516131",
"!+	c #937147",
"~+	c #775E39",
"{+	c #896842",
"]+	c #C69963",
"^+	c #A77C50",
"/+	c #C99C65",
"(+	c #D3A46C",
"_+	c #D4A56C",
":+	c #A0744C",
"<+	c #7A5739",
"[+	c #865F3E",
"}+	c #C49A63",
"|+	c #646539",
"1+	c #CD9F68",
"2+	c #CC9E67",
"3+	c #A3774D",
"4+	c #AA7E52",
"5+	c #D0A26A",
"6+	c #D0A16A",
"7+	c #9F784C",
"8+	c #73833A",
"9+	c #825C3C",
"0+	c #A5774E",
"a+	c #C99B66",
"b+	c #AA7D52",
"c+	c #A3754D",
"d+	c #A0744D",
"e+	c #A77B51",
"f+	c #9D764B",
"g+	c #825D3D",
"h+	c #84603E",
"i+	c #9C724A",
"j+	c #7B5A3A",
"k+	c #7C5C3A",
"l+	c #9B724A",
"m+	c #A2794D",
"n+	c #9E784B",
"o+	c #9C754B",
"p+	c #815D3C",
"q+	c #7D593A",
"r+	c #CC9D68",
"s+	c #A1754D",
"t+	c #9B734B",
"u+	c #9A754A",
"v+	c #9D734B",
"w+	c #6B4A34",
"x+	c #775738",
"y+	c #82623C",
"z+	c #9D794A",
"A+	c #72833A",
"B+	c #6E8038",
"C+	c #A4764F",
"D+	c #6D4635",
"E+	c #876240",
"F+	c #A1784D",
"G+	c #825E3D",
"H+	c #7A5C38",
"I+	c #987249",
"J+	c #4F5D31",
"K+	c #5B6034",
"L+	c #9D704A",
"M+	c #9D714B",
"N+	c #A3764D",
"O+	c #7C5E3A",
"P+	c #A97C52",
"Q+	c #C89A65",
"R+	c #9C784B",
"S+	c #74803A",
"T+	c #C49663",
"U+	c #5A6336",
"V+	c #515D32",
"W+	c #99724A",
"X+	c #795C38",
"Y+	c #9E754B",
"Z+	c #D1A26A",
"`+	c #698236",
" @	c #9A7349",
".@	c #7E5A3A",
"+@	c #C99D66",
"@@	c #7D5A3A",
"#@	c #755936",
"$@	c #6E8138",
"%@	c #997749",
"&@	c #6C673B",
"*@	c #7B583A",
"=@	c #6E8137",
"-@	c #9C794A",
";@	c #6D8438",
">@	c #664032",
",@	c #6D5335",
"'@	c #5C6136",
")@	c #9A724A",
"!@	c #785538",
"~@	c #A2764E",
"{@	c #AD7F54",
"]@	c #7C5F3A",
"^@	c #75853C",
"/@	c #9A704A",
"(@	c #485A2E",
"_@	c #9E714B",
":@	c #9A6E49",
"<@	c #A6784F",
"[@	c #7E5B3B",
"}@	c #C19862",
"|@	c #A2784F",
"1@	c #636538",
"2@	c #99734A",
"3@	c #674032",
"4@	c #9C704A",
"5@	c #C69863",
"6@	c #A87B50",
"7@	c #A1764D",
"8@	c #623D30",
"9@	c #C59964",
"0@	c #765738",
"a@	c #86603F",
"b@	c #74843A",
"c@	c #9E774B",
"d@	c #7D5C3B",
"e@	c #8D6A44",
"f@	c #C59B64",
"g@	c #646739",
"h@	c #565D32",
"i@	c #595D33",
"j@	c #9D724C",
"k@	c #805E3C",
"l@	c #9A7049",
"m@	c #A2764D",
"n@	c #C99B65",
"o@	c #A87E51",
"p@	c #A87D51",
"q@	c #6C8437",
"r@	c #987849",
"s@	c #9C764A",
"t@	c #73803A",
"u@	c #967248",
"v@	c #9E754D",
"w@	c #C09861",
"x@	c #917D47",
"y@	c #546232",
"z@	c #957248",
"A@	c #7B5D39",
"B@	c #7C5B3A",
"C@	c #9B754A",
"D@	c #785D38",
"E@	c #9C754A",
"F@	c #A3774E",
"G@	c #A2794E",
"H@	c #CFA169",
"I@	c #728339",
"J@	c #815D3D",
"K@	c #8D7446",
"L@	c #9F754C",
"M@	c #A67A50",
"N@	c #688236",
"O@	c #987749",
"P@	c #7D5A3B",
"Q@	c #785638",
"R@	c #876541",
"S@	c #6C683B",
"T@	c #CD9E67",
"U@	c #7F5A3B",
"V@	c #997649",
"W@	c #5C6135",
"X@	c #835E3D",
"Y@	c #8B6642",
"Z@	c #C69864",
"`@	c #CE9F69",
" #	c #678635",
".#	c #A1734C",
"+#	c #47592E",
"@#	c #425A2E",
"##	c #996D49",
"  . . + . . @ @ # $ % & # + +   + + + * =   +   - . . . . + + + ",
".     ; ; . > * * + , + @ + - ' $ ) ! ~ { . @ ' ] ^ ^ # + + + / ",
". # ( + + _ + : < < < . + [ } + | 1 2   + @ _ 3 < < 4 - + & 5   ",
"$ < < @ ; < < < 6 7 7 < $ 8 < 9 0 < < _ ; < < < 6 7 7 a . < a b ",
"< 6 7 < < 6 7 6 7 7 7 < c 6 6 7 < 6 7 < < 6 7 6 7 7 7 < c 6 6 7 ",
"6 7 7 7 6 7 7 7 < < < c 6 6 7 < 6 7 7 7 6 7 7 7 < < < c 6 6 7 < ",
"< 7 < < 7 7 < c d c c < 7 7 < c < 7 < < 7 7 < e f c c < 7 7 < c ",
"g h i j k l m n o p q j j r s s t u k v k w j j x y z A A B C D ",
"E F G H I J K L M N O P Q R S T U V W X Y Z `  ...+.@.#.$.%.&.*.",
"=.-.;.>.,.'.).!.~.{.].^././.(._.:.<.[.}.|.1.>.2.3.4.^.5.6.7.8.9.",
"0.^.>.a.b.c.!.!.~.d.;.e./.f.g.h.i.j.k.l.m.n.2.o.p.^.q.i.r.s.t.u.",
"v.w.x.y.c.z.2.i.A.i.B.C././.D.E.F.>.~.G.H.D.I.J.K.!.~.l.L.M.N.O.",
"P.Q.R.>.q.f.C.S.i.f.s.B.f./.>.T.U.V.W.9.X.0.Y.Z.`.!. +.+++@+#+$+",
"%+p.n./.C.&+&+*+e./.f.f./.!.=+y.>./.f.B.C.q.`.-+;+2.>+,+'+)+!+~+",
"{+]+^.^+/+(+_+&+C././.o.o.:+<+=+!././.f.n.[+i.}+u././.(.|+:.j.<+",
"1+2+D.3+4+1+5+6+B.^.7+8+8+).9+>./././././.q.0+C.e./.f.g.h.i.j.<+",
"a+b+c+2.d+i.e+8.8./.:+f+o.2.q./././.q.2.!.!.f.B.C././.f.2.g+>.~.",
"^.>+h+i+j+k+l+m+n+o+p+g+q./.2././.q.[+>.c.q+2.r+a+f./.>.=+~.!.!.",
"s+t+u+v+w+x+y+z+A+B+o+!./.D.2./.D./.n.C+D+%+E+0.8.F+!.G+H+>./.f.",
"I+J+K+O.L+M+>.N+).O+>./.f.S.f.f.B.C.f.S.8.P+Q+f.o.8+R+).S+).i.T+",
"U+V+W+!.9+<+=+>.).X+p+Y+p.u.q.i.r.s.t.C.&+Z+1+f.).`+8+o. @.@G+i.",
"+@(./.u.d.@@#@O+$@`+%@8+o.!.~.l.L.M.&@t.1+&+C.d.*@'.).!.~.=+>./.",
"1+7.7.B.f.).=@%@-@8+%@;@`.!.c.>@,@'@)@q.i.f.d.c.>@!@!.!.g+~@/./.",
"{@&+Z+1+f.).`+8+o. @]@^@;+/.!./@(@J+l+~.c._@~.q+:@g+i./.<@g.f.2.",
"5.1+&+C.d.*@'.).!.[@{.}@^.2.2.|@1@2@j.!@3@4@1.z.2.3.5@6@6@2+;.7@",
"q.i.f.d.a.8@c.:+!.[@d.;.i.2.D.a+9@3.j.k.l.m.n.2.o.p.^.q.i.r.6.(.",
"0@j+>.9+<+c.>.2.>.1.i.S.C./.e.C.0.a@~@[@h+Q+f.`.b@c@>+]@d@e@f@g@",
"h@i@j@z.z.z.~@>+k@l@m@4+5@^.D.n@;.3.4.o@p@6.5.7+q@r@s@t@u@v@w@x@",
"y@z@v+k@A@B@w.C@D@k@E@F@^.d+3.9.2+G@4+2+H@2+f.).`+I@L  @@@J@F+K@",
"L@2.M@>.@@#@O+$@N@O@8+L :+P@Q@R@w@S@(.2+T@;.>.*@'.).!.U@=+z.m+V@",
"5.7.B.f.).=@%@-@8+O@;@`.!.c.>@,@W@)@q.i.u.d.c.>@!@!.!.X@~@/.s+Y@",
"Z@S.`@5.`. #;@`.).]@`+`./..#/@+#@#l+~.~.>.~.k.##~.!./.i.a+D.D./+"};
