/* XPM */
static char * item_C_3_xpm[] = {
"32 32 9 1",
" 	c #5E8732",
".	c #406930",
"+	c #94AF39",
"@	c #452F24",
"#	c #896B2E",
"$	c #FFF5E4",
"%	c #DFD672",
"&	c #EDFCA0",
"*	c #2E8189",
" .............. ...++ . +.......",
".  ...+++.....+ ..+  ..  ++.... ",
".. ...@  ++..+@@### ....   +..  ",
".....@.@  @@#########@@@@.@ .. .",
"+ ....@################@@@.@....",
" .....+#####$%#%%#######@#@++...",
" . .@+%%%##%$$$$$$$$%##%%%## ..+",
". .@ #%%%#%$$%%%%%%%$$%%%%%##.+ ",
". ..#%%%#%&%%%%%%%%%%%$$%%%%#+  ",
"....#%%#%%%%%%%%%%%%%%%%$%%%%@ .",
"....###%&%%%%%%%%$$%%%%%$%%%%%@.",
"..+@###$%%%%%%%$$%%&&%%%&$%%%%@@",
".+ @##%$$%%%%%%%%%%%%%%%&$%%%##@",
".+ ###$$$$$$$$&&&%%%%%%&&&$%%#%#",
". @##%$$$&&&%%%%%%%%%%%%%&$%#%##",
" @@##%$$$&&%%%%%%%%%%%%%%%$#%#%#",
"*@@#%%$$$&%%%%%%%%%%%%%%&%$#####",
" @@#%%$$&%%%%%&%%%&&&&&&%&$#####",
".@@#%%$%%%%&&&%&%&&&&&&&&%$%####",
"..@@%%%$%%&&&&&&&&&&&&&&&$%%##@#",
"..@@#%%$%%&&&&&&&&$$&&&&$$%%# .#",
"++@@%#%%$%%&&&&&&&$$&&&&$%%% .@ ",
"  @@#%%%$%%%&&&&&&&$&&&&%%%#..@ ",
" ..@##%%%$$%%&&&&%$%%%%%#%%..@  ",
".+@+##%%%%%$$%%%%%%%%%%####++. .",
".. @@##%%%##%$$$$$$$%#####.# +..",
"... @#####%%###%%%%%#%###.#.  ..",
".... ###########%%%%%####@+@. . ",
"+.... @#################+ @...  ",
" +.... .@######### # @   ...... ",
". ..........#.### #.@ ..........",
"..........  ... ................"};
