/* XPM */
static char * item_C_2_xpm[] = {
"32 32 8 1",
" 	c #5E8732",
".	c #406930",
"+	c #94AF39",
"@	c #1C4348",
"#	c #2E8189",
"$	c #BEFFFB",
"%	c #69E0E9",
"&	c #B2E0F6",
" .............. ...++ . +.......",
".  ...+++.....+ ..+  ..  ++.... ",
".. ....  ++..+@@### ....   +..  ",
".....@@@   @@######## @...  .. .",
"+ ..@@@@@@############# ........",
" ...@@@@####$%#%%######@@..++...",
" . .@@@%%##%$$$$$$$$%##@@@+  ..+",
". .. #%%%#%$$&&&%&%&$$%@@@@ ..+ ",
". .. @%%#&&%&&&&&%&%%%$$%@@..+  ",
".....###&%%%&&&&%%%%%%%%$%%##  .",
"....%##%&%%%&&&&%%%%%%%%$#@@....",
"..+%###$%%%%&&%%%%%%%$$&&$@@+...",
".+#%##%$$%%%%%%%%%%&$$&&&&#@%.. ",
".# ###$$$$%%%%%%%%%&&$&&&&$@@$+.",
". ###$$&&%%%%%%%%%%&&&&&&&$#@$#+",
" ..##$$&%%%%%%%%%%%&&&&&&&$##$# ",
"  .%$$$%%%%%%%%%%%&%&&&&&&$$$$$$",
" #$$$$$%%%%%%%%%%%%&%$&&%%$###+ ",
"...$##$%%%%%$%%%%%%%%$%%%%$%##  ",
".. $##%%%$$$%$%%%%%%%%%%%$%%#@ .",
"...$###$%$$$$%%%%%%%%%%%%$%%# ..",
"++..$##%$%$$$%%%%%%%%%%$$%%% .. ",
"  ..$##%$%%%%%%%%%%%%%%%$%%#..  ",
" ....$%%%$$%%%%%%%%%%%$$#%%...  ",
".+++..%%%%%$$%%%%%%%$$%####++. .",
"..  +..%%%##%$$$$$$$%#####.  +..",
"...  +..#######%%%%#####....  ..",
"....  .   #############.#++.. . ",
"+....    ..@@####### @.#+ ....  ",
" +.... ...... +... . .   ...... ",
". ............ +.  .. ..........",
"..........  ... ................"};
