/* XPM */
static char * item_C_1_xpm[] = {
"32 32 8 1",
" 	c #5E8732",
".	c #406930",
"+	c #94AF39",
"@	c #45242C",
"#	c #89362E",
"$	c #FECEC7",
"%	c #F87D74",
"&	c #F9A47B",
" .............. ...++ . +.......",
".  ...+++.....+ ..+  ..  ++.... ",
".. ....  ++..+@@### ....   +..  ",
".....@.@   @@######## #...  .. .",
"+ ..@.@.#.############# ........",
" ....#+#####$%#%%#######.#.++...",
" . .@+%%%##%$$$$$$$$%##%%%#  #.+",
". .. #%%%#%$$%%%%%&&$$%%%%%#%.# ",
". .. .%%#&&%%%%&%%%&%&$$%%%%@%  ",
".....###&%%%%%%%%%%%%%&&$%%%%@#.",
"....###%&%%%%%%&%%%%&%&&$%%%%%..",
"..+@###$%%%%&&&$$%%&&&%&&$%%%%..",
".+ @##%$$%%&&&&&%%%&&&%&&$%%%@. ",
".+ ###$$$$%&&&&&%%&%&&%%%&$%%#+.",
". @##%$&&%%%%%%%%%%&%%%%%%$%##@+",
" @@##%$&&%%%%%%%%%%%%%%&%%$###@ ",
" @@##%$&%&%%&&%%%%%%%&&%&%$###@+",
" .@###$%&%%%%&%%%%%%&&&&%%$###+ ",
"...###$%%%%%&%%%%%%&&&&$$%$%##  ",
".. @##%$%%%%%%%$%$$&&&&$$$%%#@ .",
"...@###$%%%%%%%%%%$&&&$$$$%%# ..",
"++..###%$%%%%%%%%%%%$$$$$%%% .. ",
"  ..@#%%$&%%%%%%%%%%%%%%&%%#..  ",
" ....#%%%$$&&&&&&%%%%%&&#%%...  ",
".+++..%%%%%$$&&&&&%%&&%####++. .",
"..  +#.%%%##%$$$$$$$%#####.  +..",
"...  +%.#######%#%%%##%#....  ..",
".... #.#  ########%%%%#.#++.. . ",
"+....    ...+####### ..#+ ....  ",
" +.... ...... +... . .   ...... ",
". ............ +.  .. ..........",
"..........  ... ................"};
