/* XPM */
static char * char_right_xpm[] = {
"32 32 550 2",
"  	c #5E8732",
". 	c #406930",
"+ 	c #406830",
"@ 	c #385E33",
"# 	c #365B36",
"$ 	c #294C50",
"% 	c #2E5257",
"& 	c #2D5156",
"* 	c #3F6869",
"= 	c #467070",
"- 	c #3A6467",
"; 	c #3B623B",
"> 	c #3B633C",
", 	c #94AF39",
"' 	c #4F6027",
") 	c #8B6C3B",
"! 	c #9C8240",
"~ 	c #566645",
"{ 	c #417176",
"] 	c #45777C",
"^ 	c #47797E",
"/ 	c #46797F",
"( 	c #659998",
"_ 	c #699E9D",
": 	c #6BA09E",
"< 	c #679B9A",
"[ 	c #629593",
"} 	c #4B7B7E",
"| 	c #3B6052",
"1 	c #598239",
"2 	c #4A6229",
"3 	c #AA7F2A",
"4 	c #D2A646",
"5 	c #586559",
"6 	c #3F6E72",
"7 	c #3F6D71",
"8 	c #2D5357",
"9 	c #1D3E42",
"0 	c #406F74",
"a 	c #629696",
"b 	c #6CA19F",
"c 	c #6CA29F",
"d 	c #669B9A",
"e 	c #3E6B6F",
"f 	c #3D653A",
"g 	c #46642C",
"h 	c #473514",
"i 	c #202C26",
"j 	c #2E5356",
"k 	c #16363A",
"l 	c #2B4F52",
"m 	c #32585C",
"n 	c #46797E",
"o 	c #434643",
"p 	c #494E4A",
"q 	c #4B4F4B",
"r 	c #4B504B",
"s 	c #4B504C",
"t 	c #464643",
"u 	c #444034",
"v 	c #484C30",
"w 	c #406931",
"x 	c #1F3E2F",
"y 	c #2B4042",
"z 	c #2C4143",
"A 	c #352925",
"B 	c #342520",
"C 	c #53433B",
"D 	c #604D45",
"E 	c #635148",
"F 	c #79675B",
"G 	c #7C6A5E",
"H 	c #776459",
"I 	c #604E46",
"J 	c #505534",
"K 	c #8BA336",
"L 	c #2E2720",
"M 	c #3E312B",
"N 	c #3F322C",
"O 	c #3D302B",
"P 	c #4F4039",
"Q 	c #52433C",
"R 	c #191E1D",
"S 	c #1E2323",
"T 	c #272F2E",
"U 	c #212B2B",
"V 	c #433A36",
"W 	c #403F2D",
"X 	c #55772E",
"Y 	c #393127",
"Z 	c #42342E",
"` 	c #2B1F1B",
" .	c #291D17",
"..	c #203D3F",
"+.	c #1D3C3E",
"@.	c #355F63",
"#.	c #3E6C70",
"$.	c #407074",
"%.	c #487B80",
"&.	c #447C81",
"*.	c #4B8488",
"=.	c #5A9394",
"-.	c #599294",
";.	c #599394",
">.	c #538989",
",.	c #336262",
"'.	c #2B5D48",
").	c #93AF3A",
"!.	c #4B6829",
"~.	c #372C27",
"{.	c #0F1D1F",
"].	c #2C4F52",
"^.	c #2C5154",
"/.	c #45797E",
"(.	c #687D78",
"_.	c #607577",
":.	c #637877",
"<.	c #AF613C",
"[.	c #B0643C",
"}.	c #D18E44",
"|.	c #D6734B",
"1.	c #DEA154",
"2.	c #DA8A4F",
"3.	c #D7774B",
"4.	c #E3B557",
"5.	c #D77447",
"6.	c #9A6231",
"7.	c #746B2D",
"8.	c #4C642F",
"9.	c #284840",
"0.	c #244547",
"a.	c #2C5457",
"b.	c #3C5555",
"c.	c #8C5D46",
"d.	c #946458",
"e.	c #A58259",
"f.	c #BC7937",
"g.	c #B66836",
"h.	c #C28336",
"i.	c #825725",
"j.	c #855B25",
"k.	c #926030",
"l.	c #90542D",
"m.	c #946B32",
"n.	c #977836",
"o.	c #936731",
"p.	c #8F502C",
"q.	c #946632",
"r.	c #977837",
"s.	c #A26D2D",
"t.	c #974E30",
"u.	c #879E34",
"v.	c #3E6731",
"w.	c #274744",
"x.	c #4C4D4E",
"y.	c #5A584F",
"z.	c #864127",
"A.	c #96623B",
"B.	c #AD7532",
"C.	c #A25C32",
"D.	c #A86932",
"E.	c #5F302F",
"F.	c #5D2F2E",
"G.	c #522A27",
"H.	c #96545E",
"I.	c #96545F",
"J.	c #B06C78",
"K.	c #B57782",
"L.	c #B3747F",
"M.	c #B67983",
"N.	c #BC838B",
"O.	c #B0757F",
"P.	c #4A353B",
"Q.	c #203A3F",
"R.	c #373131",
"S.	c #402825",
"T.	c #43221C",
"U.	c #5A7C2E",
"V.	c #593924",
"W.	c #866344",
"X.	c #8C502F",
"Y.	c #884C2D",
"Z.	c #5E3622",
"`.	c #5F2C24",
" +	c #7F424B",
".+	c #7A4048",
"++	c #723C44",
"@+	c #8D4B55",
"#+	c #A15E69",
"$+	c #9C5D68",
"%+	c #965A64",
"&+	c #AF6C78",
"*+	c #9A6972",
"=+	c #E4BEBE",
"-+	c #BF8A93",
";+	c #CB9EA5",
">+	c #F0CDCA",
",+	c #C79CA3",
"'+	c #5F3038",
")+	c #263D42",
"!+	c #2A4E51",
"~+	c #2B3E42",
"{+	c #44391F",
"]+	c #8FA937",
"^+	c #5E3D1F",
"/+	c #7D492C",
"(+	c #743924",
"_+	c #422828",
":+	c #653336",
"<+	c #94525C",
"[+	c #995762",
"}+	c #92505B",
"|+	c #874852",
"1+	c #995D67",
"2+	c #AC6874",
"3+	c #A96672",
"4+	c #A0616C",
"5+	c #A1626D",
"6+	c #AB6974",
"7+	c #724049",
"8+	c #B97C86",
"9+	c #C28F98",
"0+	c #844B55",
"a+	c #BE8D95",
"b+	c #D5A8AB",
"c+	c #9D616C",
"d+	c #714048",
"e+	c #273E42",
"f+	c #2E5457",
"g+	c #2E5256",
"h+	c #1F3B3F",
"i+	c #2A481F",
"j+	c #93AD38",
"k+	c #47371D",
"l+	c #50261D",
"m+	c #26363B",
"n+	c #27363A",
"o+	c #45373E",
"p+	c #8D4C56",
"q+	c #AE6A76",
"r+	c #9D5B66",
"s+	c #995C67",
"t+	c #AE6B77",
"u+	c #854F58",
"v+	c #9D5F6A",
"w+	c #683A40",
"x+	c #9E5F6A",
"y+	c #75424A",
"z+	c #824C56",
"A+	c #AD6A76",
"B+	c #955964",
"C+	c #A3636F",
"D+	c #8D545E",
"E+	c #253A3F",
"F+	c #213F43",
"G+	c #122523",
"H+	c #305025",
"I+	c #5D5A22",
"J+	c #313234",
"K+	c #1D3A40",
"L+	c #1E3A3F",
"M+	c #B16D79",
"N+	c #8F535E",
"O+	c #B2717C",
"P+	c #B4747F",
"Q+	c #A6717A",
"R+	c #C18C95",
"S+	c #6C3B39",
"T+	c #C37658",
"U+	c #763824",
"V+	c #763914",
"W+	c #946353",
"X+	c #B1826D",
"Y+	c #753F37",
"Z+	c #AA6874",
"`+	c #68454D",
" @	c #3A561E",
".@	c #27431C",
"+@	c #354919",
"@@	c #1D393E",
"#@	c #43373E",
"$@	c #8B4C55",
"%@	c #8C4B55",
"&@	c #743E46",
"*@	c #B57882",
"=@	c #BB818B",
"-@	c #7C4A53",
";@	c #C5939C",
">@	c #814638",
",@	c #AE9980",
"'@	c #918A79",
")@	c #8B4B48",
"!@	c #EEA886",
"~@	c #F5BD99",
"{@	c #904F36",
"]@	c #694644",
"^@	c #5B8130",
"/@	c #254023",
"(@	c #13282B",
"_@	c #183034",
":@	c #1E3B40",
"<@	c #1A3B40",
"[@	c #643941",
"}@	c #AA6672",
"|@	c #723D46",
"1@	c #A96E78",
"2@	c #CCA0A8",
"3@	c #905660",
"4@	c #9C5A65",
"5@	c #804538",
"6@	c #B0A089",
"7@	c #DED6D7",
"8@	c #3B1C15",
"9@	c #F3B295",
"0@	c #F6CBB0",
"a@	c #8A582E",
"b@	c #416830",
"c@	c #3F682F",
"d@	c #3E662E",
"e@	c #325426",
"f@	c #333F15",
"g@	c #122411",
"h@	c #5F353B",
"i@	c #7F444D",
"j@	c #AB6874",
"k@	c #75434C",
"l@	c #C28F97",
"m@	c #774545",
"n@	c #AE806C",
"o@	c #F6C19E",
"p@	c #EDDAD8",
"q@	c #C88983",
"r@	c #FACEB3",
"s@	c #FBDAC6",
"t@	c #D89B75",
"u@	c #506931",
"v@	c #653F40",
"w@	c #9A5762",
"x@	c #8E4C56",
"y@	c #8E4B55",
"z@	c #4F292F",
"A@	c #8C4E59",
"B@	c #A5646F",
"C@	c #A36458",
"D@	c #FBC39E",
"E@	c #F9C19D",
"F@	c #FAC5A3",
"G@	c #FCDCC6",
"H@	c #FBDDC9",
"I@	c #FACDB1",
"J@	c #D58D69",
"K@	c #516931",
"L@	c #5D6C35",
"M@	c #AA6873",
"N@	c #8E555F",
"O@	c #8B4A54",
"P@	c #94515C",
"Q@	c #904E58",
"R@	c #734038",
"S@	c #7A4525",
"T@	c #854750",
"U@	c #763F48",
"V@	c #EEB796",
"W@	c #F9C29E",
"X@	c #F4BA97",
"Y@	c #D48E70",
"Z@	c #496824",
"`@	c #4E5534",
" #	c #884952",
".#	c #91535E",
"+#	c #C08B94",
"@#	c #9C5963",
"##	c #552E18",
"$#	c #B6693A",
"%#	c #8A4E2E",
"&#	c #51282F",
"*#	c #90614F",
"=#	c #F0A785",
"-#	c #E49D7B",
";#	c #CB8A65",
">#	c #7A4833",
",#	c #365425",
"'#	c #A4626E",
")#	c #8F5560",
"!#	c #78434C",
"~#	c #BD858F",
"{#	c #C08E96",
"]#	c #623840",
"^#	c #5F4141",
"/#	c #747065",
"(#	c #777267",
"_#	c #52402F",
":#	c #2F2E28",
"<#	c #674B1A",
"[#	c #0E0406",
"}#	c #1E3515",
"|#	c #5E8532",
"1#	c #835457",
"2#	c #77424B",
"3#	c #7E464F",
"4#	c #72414A",
"5#	c #49252C",
"6#	c #7E7164",
"7#	c #E2D9C5",
"8#	c #DCD4C2",
"9#	c #BC945A",
"0#	c #5D5B51",
"a#	c #D9B453",
"b#	c #B0A897",
"c#	c #67634E",
"d#	c #5E8433",
"e#	c #8C545E",
"f#	c #8F4E58",
"g#	c #693840",
"h#	c #814B54",
"i#	c #693C44",
"j#	c #422227",
"k#	c #45282C",
"l#	c #3F312B",
"m#	c #4E3C35",
"n#	c #422E21",
"o#	c #7B5F43",
"p#	c #437A80",
"q#	c #A5966F",
"r#	c #E0B749",
"s#	c #C49D5F",
"t#	c #525F2D",
"u#	c #426731",
"v#	c #8B535C",
"w#	c #75414A",
"x#	c #9C5B66",
"y#	c #C3919A",
"z#	c #75454E",
"A#	c #60343C",
"B#	c #5C413D",
"C#	c #A79E8F",
"D#	c #AEA595",
"E#	c #584E45",
"F#	c #466D70",
"G#	c #48797E",
"H#	c #41696B",
"I#	c #868067",
"J#	c #6E5A41",
"K#	c #5E8434",
"L#	c #3F672F",
"M#	c #401704",
"N#	c #5B3034",
"O#	c #AC767F",
"P#	c #BC8790",
"Q#	c #573138",
"R#	c #4D2B30",
"S#	c #8C683D",
"T#	c #919086",
"U#	c #D5C69B",
"V#	c #4B4B47",
"W#	c #2E2522",
"X#	c #412E27",
"Y#	c #413029",
"Z#	c #140300",
"`#	c #3B622C",
" $	c #61473F",
".$	c #86515A",
"+$	c #984B31",
"@$	c #673026",
"#$	c #3D3527",
"$$	c #8DA736",
"%$	c #332D1C",
"&$	c #5E6C67",
"*$	c #4A7A7D",
"=$	c #769F97",
"-$	c #3C6A6E",
";$	c #584D46",
">$	c #C1BBAF",
",$	c #C4BFB4",
"'$	c #ABA49A",
")$	c #4C6639",
"!$	c #5E7B33",
"~$	c #915F5F",
"{$	c #BA7C87",
"]$	c #9A757C",
"^$	c #673B43",
"/$	c #92AD39",
"($	c #3C591E",
"_$	c #5B3138",
":$	c #251A15",
"<$	c #543021",
"[$	c #705F58",
"}$	c #163033",
"|$	c #4B3E37",
"1$	c #B59F95",
"2$	c #EDC5BD",
"3$	c #DCB5AA",
"4$	c #6C5446",
"5$	c #5E6F35",
"6$	c #9B5E69",
"7$	c #8F6E74",
"8$	c #C6969F",
"9$	c #AF6B77",
"0$	c #684D41",
"a$	c #29471E",
"b$	c #342623",
"c$	c #40332D",
"d$	c #3E3029",
"e$	c #251712",
"f$	c #1C1512",
"g$	c #948E8D",
"h$	c #D49281",
"i$	c #E2C9C4",
"j$	c #B7A598",
"k$	c #3B471E",
"l$	c #476432",
"m$	c #496A26",
"n$	c #564346",
"o$	c #AA6975",
"p$	c #9F606B",
"q$	c #674141",
"r$	c #354B27",
"s$	c #261D1A",
"t$	c #211C18",
"u$	c #3C302A",
"v$	c #231A16",
"w$	c #7B7369",
"x$	c #392D27",
"y$	c #1F120C",
"z$	c #79736A",
"A$	c #31231A",
"B$	c #231814",
"C$	c #29451D",
"D$	c #27381B",
"E$	c #1F2E15",
"F$	c #3F662F",
"G$	c #2E4E22",
"H$	c #352F14",
"I$	c #75321F",
"J$	c #293813",
"K$	c #563E38",
"L$	c #664B45",
"M$	c #3E2B27",
"N$	c #1F1512",
"O$	c #44342E",
"P$	c #2D4320",
"Q$	c #354F1A",
"R$	c #365928",
"S$	c #3F612F",
"T$	c #6D504C",
"U$	c #97766A",
"V$	c #937366",
"W$	c #493630",
"X$	c #70524C",
"Y$	c #3E4A2C",
"  . . . . . . + @ # $ % % & * = - ; > , ,   .   , . . . . . . . ",
".     . ' ) ! ~ { { ] ^ / ( _ : < [ } | 1 . .     , , . . . .   ",
". .   . 2 3 4 5 6 7 8 9 0 a b b b b c d e f . .       , . .     ",
". . . . . g h i j k l m n o p p q r r s t u v . . .     . .   . ",
",   . . . . . w x y z A B C D E F G G G G H I J + . . . . . . . ",
"  . . . . . , K L M N O P Q R S T T T T T T U V W . . , , . . . ",
"  .   . . , X Y Z `  ...+.@.#.$.%.&.&.*.=.-.;.>.,.'.).    . . , ",
".   . .     !.~.{.].^.@./.(._.:.:.<.[.}.|.1.2.3.4.5.6.7.8.. ,   ",
".   . .   + 9.0.a.b.c.d.e.f.g.h.h.i.j.k.l.m.n.o.p.q.r.s.t.u.    ",
". . . . v.w.x.y.z.A.B.C.D.E.F.F.G.H.I.J.K.L.M.N.O.P.Q.R.S.T.U.. ",
". . . + V.W.X.Y.Z.`. +.+++@+#+$+%+J.&+*+=+-+;+>+,+'+)+!+!+~+{+. ",
". . ]+^+/+(+_+:+<+[+}+|+1+2+3+4+5+6+7+8+9+0+a+b+c+d+e+f+g+h+i+. ",
". j+k+l+m+n+o+p+q+J.r+|+s+J.J.t+u+v+w+x+y+z+A+B+C+D+E+F+G+H+.   ",
". I+J+K+L+L+o+p+M+J.r+|+N+O+P+Q+R+S+T+U+V+W+X+Y+Z+`+ @.@  , , . ",
". +@@@L+L+L+#@$@M+J.r+%@&@*@=@-@;@>@,@'@)@!@~@{@]@^@. . .   , , ",
"  . /@(@_@:@<@[@}@J.r+@+|@1@2@3@4@5@6@7@8@9@0@a@b@. . . . .     ",
"    c@d@e@f@g@h@i@j@r+@+%@k@l@5+m@n@o@p@q@r@s@t@u@. ,   . . . , ",
"  . . . .   , v@w@x@<+@+y@z@A@B@C@D@E@F@G@H@I@J@K@,   . . . ,   ",
". . . . . . L@M@N@O@@+P@Q@R@S@T@U@V@E@E@W@X@Y@Z@    . . .       ",
". .   , , . `@j@N@ #.#+#@###$#%#&#*#=#-#;#>#,#.   . . . .     . ",
". . .     , `@'#)#!#~#{#]#^#/#(#_#:#<#[#}#. , , . . . . .   . . ",
", , . .   |#1#2#3#%@H.4#5#6#7#8#9#0#a#b#c#,     . . . .   . .   ",
"    . . . d#e#f#g#h#i#j#k#l#m#n#o#p#q#r#s#t#  . . . . . . .     ",
"  . . . . u#v#w#x#y#z#A#B#C#D#E#F#G#H#I#J#K#. . .   . . . .     ",
". , , , . L#M#N#O#P#Q#R#S#T#U#V#W#X#Y#Z#`#. . .   . . , , .   . ",
". .     ,  $.$+$@$#$$$%$&$*$=$-$;$>$,$'$)$. . .   . .     , . . ",
". . .   !$~${$]$^$/$($_$:$<$[$}$|$1$2$3$4$. . . . . . .     . . ",
". . . . 5$6$7$8$9$0$a$b$c$d$e$f$c$g$h$i$j$k$. . , , , . .   .   ",
", . . . l$m$n$o$p$q$r$s$t$u$v$w$x$y$z$A$B$C$. , ,   . . . .     ",
"  , . . . .   D$E$F$G$H$I$J$K$L$M$N$O$P$Q$G$      . . . . . .   ",
".   . . . . . . . . . L#R$S$T$U$V$W$X$Y$.   . . . . . . . . . . ",
". . . . . . . . . .     . . .   . . . . . . . . . . . . . . . . "};
