/* XPM */
static char * ext_left_xpm[] = {
"32 32 199 2",
"  	c #D4A56C",
". 	c #A4764E",
"+ 	c #A4774E",
"@ 	c #335D2A",
"# 	c #2C5729",
"$ 	c #755336",
"% 	c #A1754D",
"& 	c #A3764D",
"* 	c #D3A46B",
"= 	c #745636",
"- 	c #562F2C",
"; 	c #745736",
"> 	c #D3A56C",
", 	c #C49D65",
"' 	c #7D5032",
") 	c #6A3A22",
"! 	c #985818",
"~ 	c #C88028",
"{ 	c #D6BD42",
"] 	c #477744",
"^ 	c #406A31",
"/ 	c #A3764E",
"( 	c #9E754C",
"_ 	c #A0754D",
": 	c #D1A36A",
"< 	c #A2764D",
"[ 	c #D2A46B",
"} 	c #CDA169",
"| 	c #9E6839",
"1 	c #C67F2B",
"2 	c #683820",
"3 	c #595228",
"4 	c #406930",
"5 	c #5E8732",
"6 	c #9F754C",
"7 	c #A37A4D",
"8 	c #745436",
"9 	c #755536",
"0 	c #D1A36B",
"a 	c #B09A5A",
"b 	c #95AC3B",
"c 	c #94AF39",
"d 	c #3D643E",
"e 	c #5E8633",
"f 	c #735536",
"g 	c #A1774D",
"h 	c #A3794D",
"i 	c #A2774D",
"j 	c #836A42",
"k 	c #658635",
"l 	c #CFB841",
"m 	c #5C8838",
"n 	c #775B36",
"o 	c #56362C",
"p 	c #562C2C",
"q 	c #755436",
"r 	c #926542",
"s 	c #693B22",
"t 	c #406935",
"u 	c #735436",
"v 	c #562D2C",
"w 	c #5F8832",
"x 	c #476731",
"y 	c #3F6735",
"z 	c #A1834B",
"A 	c #628133",
"B 	c #93AF3C",
"C 	c #9C794B",
"D 	c #8EAA38",
"E 	c #745536",
"F 	c #5D8632",
"G 	c #808530",
"H 	c #935F1C",
"I 	c #5B843B",
"J 	c #5D8633",
"K 	c #A16E43",
"L 	c #C57F2D",
"M 	c #945D1B",
"N 	c #5D8635",
"O 	c #406936",
"P 	c #A3774D",
"Q 	c #90AC38",
"R 	c #3E6432",
"S 	c #3F6736",
"T 	c #71653B",
"U 	c #628633",
"V 	c #3F6631",
"W 	c #406931",
"X 	c #3F6834",
"Y 	c #907247",
"Z 	c #545E32",
"` 	c #5F8732",
" .	c #C2AF3F",
"..	c #3E6738",
"+.	c #5C8437",
"@.	c #745336",
"#.	c #5A5530",
"$.	c #6B3C23",
"%.	c #8BA541",
"&.	c #3E6737",
"*.	c #59372C",
"=.	c #6A7134",
"-.	c #D4BB43",
";.	c #87A244",
">.	c #8BA43A",
",.	c #D3A46C",
"'.	c #765936",
").	c #A4784D",
"!.	c #2D5829",
"~.	c #6D6A35",
"{.	c #8FA438",
"].	c #C8812A",
"^.	c #5B8333",
"/.	c #5A8134",
"(.	c #D3A56B",
"_.	c #325C2B",
":.	c #613E22",
"<.	c #6A3B22",
"[.	c #935A1B",
"}.	c #416A32",
"|.	c #8FAF45",
"1.	c #2E5929",
"2.	c #8E7246",
"3.	c #995B20",
"4.	c #94AE39",
"5.	c #5B8233",
"6.	c #6A7234",
"7.	c #59803C",
"8.	c #5D8535",
"9.	c #56322C",
"0.	c #687634",
"a.	c #34582A",
"b.	c #BEB03E",
"c.	c #5B893A",
"d.	c #3F6835",
"e.	c #987A49",
"f.	c #784A2E",
"g.	c #BBAB3E",
"h.	c #406946",
"i.	c #8A7E43",
"j.	c #4A6A32",
"k.	c #567E40",
"l.	c #807A37",
"m.	c #678635",
"n.	c #5C8B3F",
"o.	c #618932",
"p.	c #5A632F",
"q.	c #93AC39",
"r.	c #5A823A",
"s.	c #6A5A34",
"t.	c #BB792B",
"u.	c #985819",
"v.	c #537B4D",
"w.	c #3D653D",
"x.	c #8F7246",
"y.	c #9B602B",
"z.	c #C78029",
"A.	c #98631C",
"B.	c #40693D",
"C.	c #406938",
"D.	c #957B48",
"E.	c #98A53E",
"F.	c #567B35",
"G.	c #A4784E",
"H.	c #56302C",
"I.	c #6D6B34",
"J.	c #995A1F",
"K.	c #5D8634",
"L.	c #325C2A",
"M.	c #6B5434",
"N.	c #618232",
"O.	c #5B8438",
"P.	c #5B8338",
"Q.	c #765736",
"R.	c #345E2A",
"S.	c #2E582A",
"T.	c #836B42",
"U.	c #693A22",
"V.	c #BA7D29",
"W.	c #406832",
"X.	c #5C8535",
"Y.	c #A37B4D",
"Z.	c #CAA067",
"`.	c #9A744A",
" +	c #9C754B",
".+	c #A2814B",
"++	c #74833A",
"@+	c #D5BC42",
"#+	c #3F6731",
"$+	c #9C794A",
"%+	c #887144",
"&+	c #8F7D45",
"*+	c #6C5935",
"=+	c #98744A",
"-+	c #C09B63",
";+	c #677833",
">+	c #95AD3A",
",+	c #653E22",
"'+	c #3E6531",
"  . + @ # $ . . .     # . % &   * = $ - ; . > , ' ) ! ~ { ! ] ^ ",
"  . / ( # $ .     . . # # _ % . * : . < _ / [ } | 1 2 ! ! 3 4 5 ",
"    / 6 . . .     . . . # 7 8 . / < . 9 9 . / 0 a b c ~ { d e 5 ",
". . / f / $ . .     . . . g < . < h . . $ $ / i j k 5 c { l m 4 ",
". . $ n + $ $ . . . . $ . o = / < [ . . $ p q / r s 2 ! ~ { { t ",
"5 5 $ u / $ v $ . . $ $ . u ; /       . / $ q w 5 x 2 2 ! ~ { y ",
"5 . $ % / . q $ 5 5 $ $ . n _ /       . / . . 5 z A ! ! 2 ! ~ B ",
". . 5 < < . / . 5 . $ . . 7 7 /     .   . . . . C D ~ { ! 2 ! e ",
". 5 5 8 E . + . . . 5 . . F i .   . . . $ $ $ . G H ~ { { ! I J ",
"$ . / 8 < $ q q . 5 5 $ $ F / . / . . . / . $ q K L ! ~ { M N O ",
"5 5 5 < < . . q $ . . $ . / $ / P . .   > .   5 5 Q c ! ~ R ^ S ",
". . / / <   / > 5 5 5 . . . $ + F . .   . . . _ T U ! ~ { V W X ",
". . / / [ . + . . . . . . . . . 5 . . . . . . / Y Z ` ! ~  ...+.",
". $ @./ / . / / . . . .   / . . . . . . . . . . 9 #.$.2 ! ~ %.&.",
". p 8 / / . / / . $ $ . . / / . $ $ $ . /   . . *.=.-.! 2 ! ;.>.",
"# $ 8 [ [ . ,./ . p $ . . / . . . $ $ '.).  # !.~.{.].{ ! 2 ^./.",
"# # (.(./ . ,.# # $ $     / . . . . . ; 9 . . _.:.<.! ~ { [.}.|.",
". . 1.< < $ / / # #     . . . . . . . % . . . 2.3.~ 2 ! ! 2 4.5.",
"$ . / < 0 . . . . . # . . . $ . . . . < $ $ @.6.U c c ~ { 7.5 8.",
"$ . * [ h $ $ $ $ . . .   . . . . .   [ $ $ 9.0.a.5 5 c { b.c.d.",
". . * [ < $ $ p $ .     . p $ . . . . : ,.. . e.f.<.2 ! ~ { g.h.",
"$ . / * ,.  . . . .     . $ $ . . $ . % / . $ @.i.j.2 2 ! ~ l k.",
"$ $ / . . . . q $ . .     $ . . . . + _ % . . q l.m.! ! 2 ! ~ n.",
". p $ . / + . / $ $ . . . .     .   5 o.F . . i p.q.~ { ! 2 M r.",
"$ $ $ 5 F w . / . p $ . . .   . . . / . . . . s.t.u.~ { { ! v.w.",
". . . 5 6 < . / $ $ $ 5 5 . . . . . / . . . [ x.y.z.! ~ { A.B.C.",
". . . / 6 < . * . . . 5 . . . . . . < q $ . . < D.E.4.! ~ F.4 W ",
"/ $ $ / 5 8 . G.. . . . . $ . .   . 7 H.$ . . . @.I.J.~ { 5.4 K.",
"> . $ $ _ 8 . & . $ $ . 5 $ $ .   # L.= $       . M.N.! ~  .O.P.",
"/ . / $ _ Q.  [   . $ $ . . $ $ . . R.S.>   . . / T.U.2 ! V.W.X.",
"/ / Y.i Z.[   < . . . q . . . . . . `. +# . . / .+++@+! 2 [.W.#+",
"* q $+%+&+!.. _ / . . .   . . $ $ $ *+=+. . [ -+;+>+~ { ! ,+#+'+"};
