/* XPM */
static char * item_C_4_xpm[] = {
"32 32 8 1",
" 	c #5E8732",
".	c #406930",
"+	c #94AF39",
"@	c #381E23",
"#	c #5B2E4A",
"$	c #CD66B1",
"%	c #FECEC7",
"&	c #FEABE1",
" .............. ...++ . +.......",
".  ...+++.....+ ..+  ..  ++.... ",
".. ....  ++..@@###  ....   +..  ",
"....@@@.  @@########.@ ...  .. .",
"+ .@@@@@@##$$$##$#####  ........",
" ..@@@@####$$$$$#$####@@...++...",
" . @@@$$##$%%%%%%%%$##@@@.+  ..+",
". ..#$$$#$%%&$$$$$$%%$@@@@  ..+ ",
". ..@$$#&&$&$&$$$$$$$%%$@@ ..+  ",
"....###&$$$$&$$$$$$$$$$%$$##   .",
"...$##$&$$$$$$$$$$$$$$$%#@@.....",
"..$###%$$$$$$$$$$$$$$$$&%@@++...",
".#$##$%%$$$$$$$$$$$$$&&&&#@$$.. ",
"#+###%%%%$$$$$$$$$&$&&&&&%@@$++.",
".###%%&&$$$$$$$$$$&$&&&&&%#@$#++",
" .##%%&$$$$$$$$$$$$$&&&$&%##$#  ",
"  $%%%$$$$$$$$$$$$$$$$$$&%%%%%%#",
"#%%%%%$$$$$$$$$$$$$$$$$$$%###%+ ",
"..###%$$$$$%$$$$$$$$$$$$$%###%  ",
".####$$$%%%$%$$$$$$$$$$$%$##$$ .",
".#####%$%%%%$$$$$$$$$$$$%###%$..",
"+##$##$%%%%%$$$$$$$$$$%%$###%.. ",
"  ##$$$%&&&&&$&$$$$$$$$%####$.  ",
" ..###$$%%&&&&$&$$$$$%%####$..  ",
".+++##$$$$%%&&&$$$$%%$#####$+. .",
"..  +.$$$##$%%%%%%%$######$  +..",
"...  +.$######$$$$#######...  ..",
"....  . $$############.#+++.. . ",
"+....    .$$#######.@.#++ ....  ",
" +.... ......@@@@. . @ @ ...... ",
". ............@@.  .. ..........",
"..........  ... ................"};
