/* XPM */
static char * char_back_xpm[] = {
"32 32 458 2",
"  	c #5E8732",
". 	c #406930",
"+ 	c #3B633C",
"@ 	c #376057",
"# 	c #466F70",
"$ 	c #467070",
"% 	c #406566",
"& 	c #31564E",
"* 	c #385E33",
"= 	c #94AF39",
"- 	c #84902B",
"; 	c #8E6E3D",
"> 	c #906F3D",
", 	c #4D797B",
"' 	c #649796",
") 	c #6BA09E",
"! 	c #659999",
"~ 	c #508386",
"{ 	c #45777C",
"] 	c #417075",
"^ 	c #32503D",
"/ 	c #598034",
"( 	c #617729",
"_ 	c #AC8330",
": 	c #AD8A31",
"< 	c #49797D",
"[ 	c #46797E",
"} 	c #46797F",
"| 	c #477A7F",
"1 	c #437478",
"2 	c #28494D",
"3 	c #3B6233",
"4 	c #56782F",
"5 	c #3E3728",
"6 	c #2D5155",
"7 	c #46787D",
"8 	c #44757A",
"9 	c #2B4C4A",
"0 	c #3C653B",
"a 	c #3C696C",
"b 	c #477B80",
"c 	c #396468",
"d 	c #244448",
"e 	c #254549",
"f 	c #2B4E52",
"g 	c #30575A",
"h 	c #44767B",
"i 	c #47797E",
"j 	c #365F63",
"k 	c #29494B",
"l 	c #56792D",
"m 	c #8CA438",
"n 	c #392F27",
"o 	c #4A7B7F",
"p 	c #6A9F9D",
"q 	c #4C7F83",
"r 	c #3B666A",
"s 	c #31575B",
"t 	c #31575A",
"u 	c #3E6C70",
"v 	c #2E5154",
"w 	c #2C211D",
"x 	c #3D622E",
"y 	c #46412F",
"z 	c #493932",
"A 	c #3E696D",
"B 	c #659998",
"C 	c #6CA19F",
"D 	c #639797",
"E 	c #487B80",
"F 	c #355E62",
"G 	c #322421",
"H 	c #3D3E22",
"I 	c #46693B",
"J 	c #3D332E",
"K 	c #614F47",
"L 	c #393432",
"M 	c #3C6669",
"N 	c #679C9A",
"O 	c #44767A",
"P 	c #335A5E",
"Q 	c #2D4E51",
"R 	c #302D2C",
"S 	c #40332D",
"T 	c #2A2522",
"U 	c #32563B",
"V 	c #547A35",
"W 	c #2A4C4E",
"X 	c #3F6D71",
"Y 	c #284649",
"Z 	c #625248",
"` 	c #716055",
" .	c #5B4A41",
"..	c #2C383A",
"+.	c #354D4F",
"@.	c #364D50",
"#.	c #364E50",
"$.	c #354D50",
"%.	c #2A3536",
"&.	c #2C3738",
"*.	c #3A2C27",
"=.	c #352822",
"-.	c #254345",
";.	c #2C4F53",
">.	c #2B4D4D",
",.	c #3A6034",
"'.	c #405F2D",
").	c #2A4C50",
"!.	c #518487",
"~.	c #69594F",
"{.	c #756357",
"].	c #77655A",
"^.	c #604E46",
"/.	c #5E4C44",
"(.	c #5C4B43",
"_.	c #443630",
":.	c #382C26",
"<.	c #362B26",
"[.	c #224043",
"}.	c #2E5356",
"|.	c #27484C",
"1.	c #597A2F",
"2.	c #425D2A",
"3.	c #384848",
"4.	c #43757A",
"5.	c #619595",
"6.	c #689C9B",
"7.	c #5A8988",
"8.	c #3D4F50",
"9.	c #3F352E",
"0.	c #362C26",
"a.	c #2F2521",
"b.	c #2F2520",
"c.	c #29201C",
"d.	c #1E1B18",
"e.	c #27484B",
"f.	c #2E5457",
"g.	c #313736",
"h.	c #425D2B",
"i.	c #406830",
"j.	c #643520",
"k.	c #475353",
"l.	c #588B8D",
"m.	c #55898B",
"n.	c #55888A",
"o.	c #3D6A6E",
"p.	c #376265",
"q.	c #376165",
"r.	c #495352",
"s.	c #5F331E",
"t.	c #93AE39",
"u.	c #61301F",
"v.	c #B2853D",
"w.	c #4E7B7C",
"x.	c #305456",
"y.	c #7A4031",
"z.	c #502816",
"A.	c #94AE39",
"B.	c #746626",
"C.	c #B77736",
"D.	c #A46D4E",
"E.	c #A18D80",
"F.	c #878F8A",
"G.	c #669F9E",
"H.	c #67A09F",
"I.	c #6BA19E",
"J.	c #669A99",
"K.	c #437B80",
"L.	c #42797F",
"M.	c #4B5658",
"N.	c #5D4C47",
"O.	c #866042",
"P.	c #8B5633",
"Q.	c #696928",
"R.	c #3F682F",
"S.	c #484419",
"T.	c #794024",
"U.	c #C58A38",
"V.	c #D99950",
"W.	c #D38A57",
"X.	c #DAA15B",
"Y.	c #6C8281",
"Z.	c #77A09B",
"`.	c #769D9A",
" +	c #759F9B",
".+	c #567D80",
"++	c #52787C",
"@+	c #567B7C",
"#+	c #54797C",
"$+	c #53797C",
"%+	c #5A777A",
"&+	c #A85D43",
"*+	c #AA6644",
"=+	c #B3753C",
"-+	c #93633A",
";+	c #5A2C18",
">+	c #383B1B",
",+	c #5D8631",
"'+	c #3A5F2B",
")+	c #2C4B20",
"!+	c #6F4626",
"~+	c #AA8C3D",
"{+	c #9A452C",
"]+	c #E2A34E",
"^+	c #E6A74E",
"/+	c #DB7441",
"(+	c #C88136",
"_+	c #BD7836",
":+	c #BC7436",
"<+	c #C17F36",
"[+	c #B46236",
"}+	c #C07E36",
"|+	c #B66636",
"1+	c #B96F36",
"2+	c #BD7A35",
"3+	c #885A24",
"4+	c #926A25",
"5+	c #594122",
"6+	c #63423D",
"7+	c #8F4E58",
"8+	c #5C4031",
"9+	c #523526",
"0+	c #4B261F",
"a+	c #44251D",
"b+	c #472B1D",
"c+	c #472A1D",
"d+	c #44231D",
"e+	c #45251D",
"f+	c #43221D",
"g+	c #4A2C23",
"h+	c #56362E",
"i+	c #8B4953",
"j+	c #613C3C",
"k+	c #663F41",
"l+	c #A96571",
"m+	c #B26D79",
"n+	c #AA6672",
"o+	c #A25F6A",
"p+	c #8D4B55",
"q+	c #92505A",
"r+	c #A4616C",
"s+	c #9E5B66",
"t+	c #97545F",
"u+	c #AB6772",
"v+	c #9F5D68",
"w+	c #633E3E",
"x+	c #5E8432",
"y+	c #75484C",
"z+	c #985A64",
"A+	c #8D4D57",
"B+	c #AC6874",
"C+	c #904E58",
"D+	c #A6636F",
"E+	c #B06C78",
"F+	c #AB6773",
"G+	c #AF6B77",
"H+	c #94525C",
"I+	c #A86470",
"J+	c #A05D68",
"K+	c #884852",
"L+	c #794E4E",
"M+	c #4D5332",
"N+	c #BE8D95",
"O+	c #C08992",
"P+	c #6A3B43",
"Q+	c #703B44",
"R+	c #8E4C56",
"S+	c #995762",
"T+	c #894F59",
"U+	c #713C45",
"V+	c #9A5862",
"W+	c #8D4C56",
"X+	c #703C44",
"Y+	c #693A42",
"Z+	c #AB6975",
"`+	c #4E5534",
" @	c #514C33",
".@	c #BF8F97",
"+@	c #B8848D",
"@@	c #854F58",
"#@	c #B16D79",
"$@	c #A5626D",
"%@	c #874851",
"&@	c #753C45",
"*@	c #523525",
"=@	c #6F5117",
"-@	c #965761",
";@	c #B16C78",
">@	c #B16C79",
",@	c #A96773",
"'@	c #A4626E",
")@	c #534E36",
"!@	c #655B3D",
"~@	c #8A525C",
"{@	c #AB6974",
"]@	c #915D66",
"^@	c #AC6A75",
"/@	c #6A3941",
"(@	c #37191D",
"_@	c #3D6C70",
":@	c #5A7574",
"<@	c #798374",
"[@	c #402227",
"}@	c #78464E",
"|@	c #AC6975",
"1@	c #7C444E",
"2@	c #8A4A53",
"3@	c #5E4D3D",
"4@	c #6A4F46",
"5@	c #C7959E",
"6@	c #6D4048",
"7@	c #73424B",
"8@	c #7C4851",
"9@	c #070E07",
"0@	c #322312",
"a@	c #62726D",
"b@	c #322311",
"c@	c #372022",
"d@	c #683D44",
"e@	c #683941",
"f@	c #644240",
"g@	c #634240",
"h@	c #B67681",
"i@	c #73434C",
"j@	c #AD6A76",
"k@	c #A66671",
"l@	c #000100",
"m@	c #35592A",
"n@	c #27494D",
"o@	c #558688",
"p@	c #6B9E9C",
"q@	c #4F722C",
"r@	c #000000",
"s@	c #A76672",
"t@	c #9C5B66",
"u@	c #6F3E47",
"v@	c #603F3C",
"w@	c #466332",
"x@	c #1B1B07",
"y@	c #884A47",
"z@	c #66393F",
"A@	c #6A3840",
"B@	c #112D2F",
"C@	c #2A4A27",
"D@	c #2A1D18",
"E@	c #46332B",
"F@	c #46322A",
"G@	c #0C2C2E",
"H@	c #834F58",
"I@	c #A5616D",
"J@	c #613439",
"K@	c #6D3431",
"L@	c #1A1C0A",
"M@	c #8FA43A",
"N@	c #5F8233",
"O@	c #8B5A5D",
"P@	c #A86A75",
"Q@	c #7A3C29",
"R@	c #7B3724",
"S@	c #411E1F",
"T@	c #406E72",
"U@	c #264F55",
"V@	c #7D796C",
"W@	c #4F6062",
"X@	c #648589",
"Y@	c #64868A",
"Z@	c #3C1818",
"`@	c #763321",
" #	c #5B2619",
".#	c #81444D",
"+#	c #633B3D",
"@#	c #5E8632",
"##	c #654C3E",
"$#	c #BE858E",
"%#	c #CB9DA5",
"&#	c #9E606B",
"*#	c #67373F",
"=#	c #000A0E",
"-#	c #010E14",
";#	c #0E171B",
">#	c #3A4443",
",#	c #B2BBBA",
"'#	c #BEC6C6",
")#	c #C2CECF",
"!#	c #C5D4D3",
"~#	c #301D23",
"{#	c #66353D",
"]#	c #7F434C",
"^#	c #844650",
"/#	c #616C38",
"(#	c #5D493C",
"_#	c #915761",
":#	c #BE8F97",
"<#	c #AE6A76",
"[#	c #8B4C55",
"}#	c #111D05",
"|#	c #51732C",
"1#	c #382C27",
"2#	c #3F332D",
"3#	c #2A2926",
"4#	c #2F2C28",
"5#	c #30302D",
"6#	c #31332F",
"7#	c #32332F",
"8#	c #2E2B28",
"9#	c #222221",
"0#	c #39592A",
"a#	c #452B2A",
"b#	c #854650",
"c#	c #6A373E",
"d#	c #5E423C",
"e#	c #2C411D",
"f#	c #A56470",
"g#	c #8A4D57",
"h#	c #5E3637",
"i#	c #587E2E",
"j#	c #2F2921",
"k#	c #79675B",
"l#	c #67554C",
"m#	c #635349",
"n#	c #7B695D",
"o#	c #6F5D53",
"p#	c #4C4038",
"q#	c #66554C",
"r#	c #6C5A50",
"s#	c #5D4B43",
"t#	c #322722",
"u#	c #8FA53A",
"v#	c #774748",
"w#	c #81454E",
"x#	c #84464F",
"y#	c #26411B",
"z#	c #4C5C34",
"A#	c #283C1C",
"B#	c #2A3C14",
"C#	c #3D652E",
"D#	c #27271B",
"E#	c #1B3012",
"F#	c #3E312C",
"G#	c #3F312B",
"H#	c #291C18",
"I#	c #68584E",
"J#	c #2A211D",
"K#	c #664A44",
"L#	c #422E2B",
"M#	c #3E322B",
"N#	c #2C2F1B",
"O#	c #5B8230",
"P#	c #1D2E13",
"Q#	c #263B1A",
"R#	c #385D2A",
"S#	c #365527",
"T#	c #513A34",
"U#	c #917265",
"V#	c #71564C",
"W#	c #505625",
"X#	c #353A24",
"Y#	c #71554C",
"  . . . . . . . . . . + @ # $ % % & * = =   .   = . . . . . . . ",
".     . . . = = - ; > , ' ) ) ! ~ { ] ^ / . .     = = . . . .   ",
". .   . . . .   ( _ : < [ [ [ } | | | 1 2 3 . .       = . .     ",
". . . . . . . .   4 5 6 7 7 7 7 | | | | 8 9 / . . .     . .   . ",
"=   . . . . . . 0 a b c d e f g h | | | i j k l . . . . . . . . ",
"  . . . . . = m n o p q r s t 7 | | | | | u v w x . . = = . . . ",
"  .   . . =   y z A B C D E b | | | | | | F v G H . =     . . = ",
".   . .   / I J K L M ' N E | | | | | O P Q R S T U /   . . =   ",
".   . . V W X Y Z `  ...+.@.#.#.#.#.$.%.&.*.S =.-.;.>.,.. =     ",
". . . '.).{ !.!.M ~.{.].^././././././.(._.:.<.[.}.}.}.|.1.    . ",
". . 2.3.4.5.) ) 6.7.8.9.0.a.a.b.b.b.b.c.d.e.e.}.}.}.}.f.g.h.. . ",
". i.j.k.l.) ) ) ) ) C m.n.| o.p.p.p.p.q.{ b c P }.}.}.}.r.s.i.. ",
". t.u.v.w.) ) ) ) ) ) ) ) 5.| | | | | | | | | 7 t }.}.x.y.z.i.  ",
". A.B.C.D.E.F.G.H.I.) ) ) J.} | | | | | | | | K.L.M.N.O.P.Q.t.. ",
".   R.S.T.U.V.W.X.Y.Z.`. +.+++@+++#+$+++@+++%+&+*+=+-+;+>+,+= = ",
"  . . . '+)+!+~+{+]+^+/+(+_+:+<+[+<+}+|+<+1+2+3+4+5+)+'+. .     ",
"    . . . = . 6+7+8+9+0+a+b+c+d+d+c+b+e+f+g+h+i+j+. =   . . . = ",
"  . . . .   = k+l+m+n+o+p+q+r+r+r+s+p+t+r+u+v+p+w+=   . . . =   ",
". . . . . . x+y+z+A+B+C+D+E+E+F+F+E+G+H+I+J+K+J+L+x+. . .       ",
". .   = = . M+N+O+P+Q+R+S+S+T+U+U+T+S+V+W+X+Y+B+Z+`+. . .     . ",
". . .     =  @.@+@@@#@$@%@&@*@=@=@*@&@-@;@>@@@,@'@)@. . .   . . ",
"= = . .   !@~@{@]@^@o+/@(@_@:@<@<@:@_@[@}@E+|@1@2@~@3@.   . .   ",
"    . . . 4@5@6@7@8@9@0@a@) ) ) ) ) ) a@b@c@d@/@e@l+f@. . .     ",
"  . . . . g@h@i@j@k@l@m@n@o@p@p@p@p@o@n@q@r@s@t@u@o+v@. . .     ",
". = = = w@x@y@z@B+A@B@C@D@E@F@F@F@F@E@D@C@G@H@I@J@K@L@M@= .   . ",
". .   N@O@P@Q@R@S@T@U@V@W@X@Y@Y@Y@Y@X@W@V@U@T@Z@`@ #.#+#@#= . . ",
". . . ##$#%#&#*#=#-#;#>#,#'#)#!#!#)#'#,#>#;#-#~#{#]#p+^#/#  . . ",
". . . (#_#:#<#[#}#|#1#2#3#4#5#6#7#5#8#9#2#1#0#a#2@p+b#c#d#  .   ",
"= . . . e#f#g#h#i#j#S K k#l#m#n#o#p#q#r#s#t#j#u#v#w#x#y#z#.     ",
"  = . . . A#B#C#. D#E#F#G#H#H#I#J#K#L#G#M#E#N#  O#P#Q#. . . .   ",
".   . . . . . . . R#. S#T#U#V#W#X#Y#U#T#S#  R#. . . . . . . . . ",
". . . . . . . . . .     . . .   . . . . . . . . . . . . . . . . "};
