/* XPM */
static char * char_front_xpm[] = {
"32 32 520 2",
"  	c #5E8732",
". 	c #406930",
"+ 	c #3D6538",
"@ 	c #3B623B",
"# 	c #3A6467",
"$ 	c #467070",
"% 	c #3F6869",
"& 	c #2D5257",
"* 	c #2E5358",
"= 	c #78913F",
"- 	c #627B36",
"; 	c #636A35",
"> 	c #6B7D31",
", 	c #93AE38",
"' 	c #94AF39",
") 	c #335950",
"! 	c #3E6B6C",
"~ 	c #629492",
"{ 	c #629493",
"] 	c #679B9A",
"^ 	c #6BA09E",
"/ 	c #6A9F9D",
"( 	c #4E8184",
"_ 	c #31575B",
": 	c #3E6B70",
"< 	c #58625B",
"[ 	c #D3B150",
"} 	c #9E7427",
"| 	c #5F8430",
"1 	c #92AD39",
"2 	c #587757",
"3 	c #5A8E8F",
"4 	c #6CA2A0",
"5 	c #6CA19F",
"6 	c #639797",
"7 	c #609494",
"8 	c #4D8084",
"9 	c #487C81",
"0 	c #2B4F53",
"a 	c #3B3F38",
"b 	c #9A7327",
"c 	c #355827",
"d 	c #345445",
"e 	c #45767B",
"f 	c #49504D",
"g 	c #4B504B",
"h 	c #474844",
"i 	c #353A3A",
"j 	c #333939",
"k 	c #363A39",
"l 	c #383531",
"m 	c #395455",
"n 	c #22352C",
"o 	c #406830",
"p 	c #2C402E",
"q 	c #473833",
"r 	c #54433B",
"s 	c #705E53",
"t 	c #7C6A5E",
"u 	c #78665A",
"v 	c #635048",
"w 	c #7A5B44",
"x 	c #C19D4D",
"y 	c #CAA550",
"z 	c #785918",
"A 	c #455023",
"B 	c #555E23",
"C 	c #494F25",
"D 	c #3D302A",
"E 	c #584740",
"F 	c #423B37",
"G 	c #272F2E",
"H 	c #212B2B",
"I 	c #162329",
"J 	c #D0B250",
"K 	c #AA802C",
"L 	c #765512",
"M 	c #8D692B",
"N 	c #6E5311",
"O 	c #53772B",
"P 	c #1F1D0A",
"Q 	c #2E4547",
"R 	c #356063",
"S 	c #548A8A",
"T 	c #599394",
"U 	c #599294",
"V 	c #599194",
"W 	c #528B8E",
"X 	c #2E6066",
"Y 	c #8E6A21",
"Z 	c #2C1D02",
"` 	c #0F060C",
" .	c #1C2305",
"..	c #385C2A",
"+.	c #5C8433",
"@.	c #567D36",
"#.	c #22464C",
"$.	c #708375",
"%.	c #798986",
"&.	c #8F968E",
"*.	c #D87749",
"=.	c #DB8E4F",
"-.	c #DE9D53",
";.	c #D6744B",
">.	c #E2B057",
",.	c #D87F4D",
"'.	c #D28948",
").	c #B36D3C",
"!.	c #AE5B36",
"~.	c #62544E",
"{.	c #525251",
"].	c #5A5C4E",
"^.	c #031C1E",
"/.	c #557B30",
"(.	c #5B8431",
"_.	c #4F4E36",
":.	c #8B4C3B",
"<.	c #9F7B5A",
"[.	c #DE994E",
"}.	c #E1934A",
"|.	c #E0AA4F",
"1.	c #916131",
"2.	c #987836",
"3.	c #956E33",
"4.	c #90572E",
"5.	c #915A2E",
"6.	c #967435",
"7.	c #8D6D32",
"8.	c #845B25",
"9.	c #7C4B24",
"0.	c #BE8236",
"a.	c #B97138",
"b.	c #BA7839",
"c.	c #9E7046",
"d.	c #8A4732",
"e.	c #473B28",
"f.	c #3F662E",
"g.	c #5C493B",
"h.	c #B77936",
"i.	c #A25B32",
"j.	c #986D31",
"k.	c #5D2F2E",
"l.	c #5E302E",
"m.	c #724345",
"n.	c #995C66",
"o.	c #9B5A64",
"p.	c #BE858D",
"q.	c #B57782",
"r.	c #B47580",
"s.	c #B97E87",
"t.	c #B1707B",
"u.	c #B67983",
"v.	c #B06C78",
"w.	c #9A5862",
"x.	c #96545F",
"y.	c #5A2F2E",
"z.	c #5D2F2F",
"A.	c #9D5534",
"B.	c #8B5633",
"C.	c #484129",
"D.	c #5C8331",
"E.	c #644C2B",
"F.	c #744128",
"G.	c #654B2C",
"H.	c #2B3438",
"I.	c #743C45",
"J.	c #A6636F",
"K.	c #8D505B",
"L.	c #C6979E",
"M.	c #CC9B9F",
"N.	c #CA9BA2",
"O.	c #F1CECB",
"P.	c #BF939B",
"Q.	c #B78A92",
"R.	c #EDC8C7",
"S.	c #D6ADB1",
"T.	c #B87D87",
"U.	c #E4BEBE",
"V.	c #AD7D86",
"W.	c #AA6873",
"X.	c #B16C78",
"Y.	c #A0616C",
"Z.	c #8E535D",
"`.	c #904E58",
" +	c #753D46",
".+	c #2C3438",
"++	c #533D2F",
"@+	c #653823",
"#+	c #453A1F",
"$+	c #662E21",
"%+	c #283F43",
"&+	c #244347",
"*+	c #253B40",
"=+	c #8C525C",
"-+	c #C798A0",
";+	c #8B505B",
">+	c #BF8D96",
",+	c #94676F",
"'+	c #A67078",
")+	c #D0A2A7",
"!+	c #A46470",
"~+	c #8B525D",
"{+	c #CB9CA2",
"]+	c #74414A",
"^+	c #BD8992",
"/+	c #BE8690",
"(+	c #74424B",
"_+	c #A66571",
":+	c #AD6A76",
"<+	c #8E555F",
"[+	c #794049",
"}+	c #253A3F",
"|+	c #1E3A3F",
"1+	c #23383C",
"2+	c #662F22",
"3+	c #1D3113",
"4+	c #4C581B",
"5+	c #294044",
"6+	c #2E5356",
"7+	c #304F52",
"8+	c #8D535D",
"9+	c #AC6A75",
"0+	c #824C55",
"a+	c #87505B",
"b+	c #CA8068",
"c+	c #9B5D69",
"d+	c #A2636E",
"e+	c #C07B64",
"f+	c #8A515A",
"g+	c #AF6B77",
"h+	c #945963",
"i+	c #724048",
"j+	c #8F555F",
"k+	c #734149",
"l+	c #8A525C",
"m+	c #7F4953",
"n+	c #9E5D68",
"o+	c #25383C",
"p+	c #1C3214",
"q+	c #6E8329",
"r+	c #1D383C",
"s+	c #2E5255",
"t+	c #325255",
"u+	c #AE6A76",
"v+	c #B5848D",
"w+	c #B68089",
"x+	c #6D3531",
"y+	c #73360F",
"z+	c #5C2E25",
"A+	c #7C4032",
"B+	c #DFA989",
"C+	c #E4A283",
"D+	c #B28570",
"E+	c #A87864",
"F+	c #954C25",
"G+	c #67321E",
"H+	c #72381B",
"I+	c #6E3733",
"J+	c #995863",
"K+	c #A56570",
"L+	c #8E4C56",
"M+	c #1E3B40",
"N+	c #193136",
"O+	c #325427",
"P+	c #12241D",
"Q+	c #1F3C41",
"R+	c #88505A",
"S+	c #C09199",
"T+	c #905761",
"U+	c #C0929A",
"V+	c #968879",
"W+	c #894E4C",
"X+	c #000000",
"Y+	c #67402A",
"Z+	c #E8AD89",
"`+	c #F9C19D",
" @	c #69412B",
".@	c #783E3E",
"+@	c #26211D",
"@@	c #98897B",
"#@	c #905661",
"$@	c #8A4953",
"%@	c #753F48",
"&@	c #24383D",
"*@	c #1D393D",
"=@	c #0E1F16",
"-@	c #4A6C28",
";@	c #2C4A20",
">@	c #2B4920",
",@	c #001012",
"'@	c #B5818A",
")@	c #8E636A",
"!@	c #A66570",
"~@	c #CECDCD",
"{@	c #7A4F50",
"]@	c #5F282A",
"^@	c #DECEC3",
"/@	c #F6C0A4",
"(@	c #F9C09C",
"_@	c #5D2729",
":@	c #7C5051",
"<@	c #D2CECF",
"[@	c #A96773",
"}@	c #844C55",
"|@	c #864751",
"1@	c #00191B",
"2@	c #3F672F",
"3@	c #4E4138",
"4@	c #CA9CA4",
"5@	c #4E3436",
"6@	c #CDC6C3",
"7@	c #CB8984",
"8@	c #C7837E",
"9@	c #FDF0EA",
"0@	c #FAD4BC",
"a@	c #FBDAC6",
"b@	c #D4C8C6",
"c@	c #6D3D44",
"d@	c #8E4B55",
"e@	c #37281F",
"f@	c #4C332F",
"g@	c #9F6B74",
"h@	c #9C6068",
"i@	c #D38569",
"j@	c #FAC19D",
"k@	c #FACAAA",
"l@	c #FBDCC7",
"m@	c #FBDDC9",
"n@	c #F8D4BF",
"o@	c #D48569",
"p@	c #85494F",
"q@	c #794048",
"r@	c #4A312D",
"s@	c #5D6B34",
"t@	c #AE727C",
"u@	c #83555D",
"v@	c #995D67",
"w@	c #955541",
"x@	c #DA9273",
"y@	c #F4B996",
"z@	c #F9C29E",
"A@	c #F9C19E",
"B@	c #92533D",
"C@	c #7B414A",
"D@	c #66343C",
"E@	c #A76571",
"F@	c #5D6C35",
"G@	c #4C5430",
"H@	c #C599A1",
"I@	c #A0777E",
"J@	c #733C45",
"K@	c #4E2C33",
"L@	c #50282C",
"M@	c #7D4B35",
"N@	c #CC8B66",
"O@	c #E69F7D",
"P@	c #F0A685",
"Q@	c #7C4935",
"R@	c #4F272C",
"S@	c #401F26",
"T@	c #713B43",
"U@	c #884F59",
"V@	c #AA6874",
"W@	c #4E5534",
"X@	c #8A9B3B",
"Y@	c #6E3D46",
"Z@	c #AD6C78",
"`@	c #9C7078",
" #	c #814F52",
".#	c #897E71",
"+#	c #988775",
"@#	c #70644D",
"##	c #303E3D",
"$#	c #674B1B",
"%#	c #0C0001",
"&#	c #8A515B",
"*#	c #8C4C56",
"=#	c #704048",
"-#	c #4D5F35",
";#	c #6A4C45",
">#	c #C3949C",
",#	c #815059",
"'#	c #726357",
")#	c #DED6C1",
"!#	c #E2D7C1",
"~#	c #727364",
"{#	c #5F7977",
"]#	c #C08F39",
"^#	c #BCB49E",
"/#	c #683740",
"(#	c #703C45",
"_#	c #A05F6A",
":#	c #644240",
"<#	c #684A40",
"[#	c #BB808A",
"}#	c #73454D",
"|#	c #69383F",
"1#	c #3F302A",
"2#	c #55453D",
"3#	c #372314",
"4#	c #62716C",
"5#	c #6AA09F",
"6#	c #BDAD71",
"7#	c #D8B152",
"8#	c #703E47",
"9#	c #B36E7A",
"0#	c #654241",
"a#	c #2F2B1C",
"b#	c #8E545B",
"c#	c #6D4046",
"d#	c #897A70",
"e#	c #D5CDBB",
"f#	c #857F6F",
"g#	c #35592A",
"h#	c #27494D",
"i#	c #4D7F82",
"j#	c #55797B",
"k#	c #C39746",
"l#	c #4F722C",
"m#	c #8D545B",
"n#	c #2E2B1C",
"o#	c #6B5347",
"p#	c #7B474F",
"q#	c #683526",
"r#	c #967444",
"s#	c #949489",
"t#	c #E2D1A4",
"u#	c #6C6E66",
"v#	c #2A4A27",
"w#	c #22140F",
"x#	c #2B1811",
"y#	c #412F27",
"z#	c #3B2D2B",
"A#	c #4E261F",
"B#	c #5E3737",
"C#	c #8EA439",
"D#	c #64543D",
"E#	c #B87F89",
"F#	c #C798A1",
"G#	c #80525C",
"H#	c #597775",
"I#	c #649796",
"J#	c #779D94",
"K#	c #2B555B",
"L#	c #807A6D",
"M#	c #A59D92",
"N#	c #C4BFB4",
"O#	c #673F47",
"P#	c #8C4B55",
"Q#	c #754447",
"R#	c #5E8233",
"S#	c #654C3E",
"T#	c #AB707A",
"U#	c #C598A0",
"V#	c #955558",
"W#	c #AF6E54",
"X#	c #856357",
"Y#	c #2C5054",
"Z#	c #0A2427",
"`#	c #253637",
" $	c #9E7C6D",
".$	c #EBC4BC",
"+$	c #ECC4BC",
"@$	c #ECC3BB",
"#$	c #7F413F",
"$$	c #884852",
"%$	c #80444D",
"&$	c #634A3C",
"*$	c #416630",
"=$	c #423028",
"-$	c #A96974",
";$	c #AD6975",
">$	c #4E302B",
",$	c #323516",
"'$	c #51732C",
")$	c #4A3B35",
"!$	c #3B2C26",
"~$	c #9B9389",
"{$	c #D2907F",
"]$	c #D79F92",
"^$	c #E6D3CF",
"/$	c #39592A",
"($	c #2C2B15",
"_$	c #4E2E28",
":$	c #8C4A53",
"<$	c #84464F",
"[$	c #101C09",
"}$	c #594839",
"|$	c #3C632D",
"1$	c #694746",
"2$	c #563138",
"3$	c #516C2C",
"4$	c #2F2921",
"5$	c #312823",
"6$	c #5F2717",
"7$	c #1B130F",
"8$	c #3A302B",
"9$	c #716C63",
"0$	c #4E3125",
"a$	c #838E3A",
"b$	c #49252B",
"c$	c #533231",
"d$	c #3F6830",
"e$	c #5D8632",
"f$	c #27271B",
"g$	c #1B3012",
"h$	c #6D3120",
"i$	c #302420",
"j$	c #382725",
"k$	c #6A4E49",
"l$	c #523128",
"m$	c #6D3220",
"n$	c #2C2F1B",
"o$	c #385D2A",
"p$	c #365628",
"q$	c #533D36",
"r$	c #977669",
"s$	c #73574E",
"t$	c #555A2C",
"u$	c #3D3E2A",
"  . . . . . . . . . . . + @ @ # $ % & * = - ; > , . . . . . . . ",
".     . . . ' ' ' . . ) ! ~ { ] ^ / ( _ : < [ } | ' ' . . . .   ",
". .   . . . .     1 2 3 4 5 5 5 6 7 8 9 0 a b c       ' . .     ",
". . . . . . . .   d e f g g g g h i j k l m n . . .     . .   . ",
"'   . . . . . o p q r s t t t t t u v w x y z A B . . . . . . . ",
"  . . . . . ' C D E F G G G G G G G H I J K L M N . . ' ' . . . ",
"  .   . . ' O P Q R S T U T V T T V T W X Y Z `  ...'     . . ' ",
".   . . +.@.#.$.%.&.*.=.-.;.>.,.,.>.;.'.).!.~.{.].^./.(.. . '   ",
".   . . _.:.<.[.}.|.1.2.3.4.5.6.6.5.4.7.8.9.0.a.b.c.d.e.. '     ",
". . f.g.h.i.j.k.l.m.n.o.p.q.r.s.s.t.u.v.w.x.y.z.k.j.A.B.C.D.  . ",
". . E.F.G.H.I.J.K.L.M.N.O.P.Q.R.S.T.U.V.W.X.Y.Z.`. +.+++@+E.. . ",
". #+$+%+&+*+=+-+;+>+,+'+)+!+~+{+{+]+^+/+(+_+:+<+`.[+}+|+1+2+3+. ",
". 4+5+6+6+7+8+r.9+0+a+b+c+d+e+f+g+h+i+j+k+l+m+n+`.[+}+|+|+o+p+  ",
". q+r+s+6+t+8+u+v+w+x+y+z+A+B+C+D+E+F+G+H+I+J+K+L+[+}+|+M+N+q+. ",
".   O+P+Q+*+R+S+T+U+V+W+X+Y+Z+`+`+Z+ @.@+@@@W.#@$@%@&@*@=@-@' ' ",
"  . . . ;@>@,@'@)@!@~@{@]@^@/@(@(@/@^@_@:@<@[@}@|@1@>@;@. .     ",
"    . . . ' 2@3@4@5@6@7@8@9@0@a@a@0@9@8@7@b@c@d@e@2@'   . . . ' ",
"  . . . .   ' f@g@h@i@j@k@l@m@n@n@m@l@k@j@o@p@q@r@'   . . . '   ",
". . . . . . s@t@u@v@w@x@y@z@z@A@A@z@z@y@x@B@C@D@E@F@. . .       ",
". .   ' ' . G@H@I@J@K@L@M@N@O@P@P@O@N@Q@R@S@T@U@V@W@. . .     . ",
". . .     X@Y@Z@`@ #.#+#@###$#%#%#$###@#+#.# #&#*#=#-#. .   . . ",
"' ' . .   ;#>#,#Y@'#)#!#~#{#]#^#^#]#{#~#!#)#'#/#(#_#:#.   . .   ",
"    . . . <#[#}#|#1#2#3#4#5#6#7#7#6#5#4#3#2#1#|#8#9#0#. . .     ",
"  . . . . a#b#c#d#e#f#g#h#i#j#k#k#j#i#h#l#f#e#d#c#m#n#. . .     ",
". ' ' ' o#p#q#r#s#t#u#v#w#x#y#z#z#y#x#w#v#u#t#s#r#A#B#C#' .   . ",
". .   D#E#F#G#H#I#J#K#L#M#N#N#N#N#N#N#M#L#K#J#I#H#O#P#Q#R#' . . ",
". . . S#T#U#V#W#X#Y#Z#`# $.$+$@$@$+$.$ $`#Z#Y#X#W##$$$%$&$  . . ",
". . . *$=$-$;$>$,$'$)$!$~${$]$^$^$]${$~$!$)$/$($_$:$<$[$}$  .   ",
"' . . . |$1$2$3$  4$5$6$7$8$9$0$0$9$8$7$6$5$4$' a$b$c$|$. .     ",
"  ' . . . d$e$. . f$g$h$i$j$k$l$l$k$j$i$m$g$n$    d$d$. . . .   ",
".   . . . . . . . o$. p$q$r$s$t$u$s$r$q$p$  o$. . . . . . . . . ",
". . . . . . . . . .     . . .   . . . . . . . . . . . . . . . . "};
