/* XPM */
static char * char_left_xpm[] = {
"32 32 559 2",
"  	c #5E8732",
". 	c #406930",
"+ 	c #3B633C",
"@ 	c #3B623B",
"# 	c #3A6467",
"$ 	c #467070",
"% 	c #3F6869",
"& 	c #2D5156",
"* 	c #2E5257",
"= 	c #294C50",
"- 	c #365B36",
"; 	c #517734",
"> 	c #93AE39",
", 	c #94AF39",
"' 	c #3E6737",
") 	c #335851",
"! 	c #4B7B7E",
"~ 	c #629593",
"{ 	c #679B9A",
"] 	c #6BA09E",
"^ 	c #699E9D",
"/ 	c #659998",
"( 	c #46797F",
"_ 	c #47797E",
": 	c #45777C",
"< 	c #417176",
"[ 	c #455944",
"} 	c #9C8240",
"| 	c #967E3C",
"1 	c #4F6027",
"2 	c #87A240",
"3 	c #3E6B6F",
"4 	c #669B9A",
"5 	c #6CA29F",
"6 	c #6CA19F",
"7 	c #629696",
"8 	c #406F74",
"9 	c #1D3E42",
"0 	c #2D5357",
"a 	c #3F6D71",
"b 	c #3F6E72",
"c 	c #586559",
"d 	c #D2A646",
"e 	c #AA802A",
"f 	c #8A9E31",
"g 	c #484C30",
"h 	c #444034",
"i 	c #464643",
"j 	c #4F504A",
"k 	c #4E504A",
"l 	c #4B4F49",
"m 	c #484D49",
"n 	c #4A4E49",
"o 	c #494E4A",
"p 	c #434643",
"q 	c #46797E",
"r 	c #32585C",
"s 	c #2B4F52",
"t 	c #16363A",
"u 	c #2E5356",
"v 	c #202C26",
"w 	c #473514",
"x 	c #5E7F2E",
"y 	c #406830",
"z 	c #494A34",
"A 	c #604E46",
"B 	c #776459",
"C 	c #826B5A",
"D 	c #BA944A",
"E 	c #C9A550",
"F 	c #90702A",
"G 	c #674D2C",
"H 	c #7E5B0F",
"I 	c #5F4D45",
"J 	c #53433B",
"K 	c #342520",
"L 	c #352925",
"M 	c #2C4143",
"N 	c #2B4042",
"O 	c #2E4C30",
"P 	c #406931",
"Q 	c #54562F",
"R 	c #433A36",
"S 	c #212B2B",
"T 	c #272F2E",
"U 	c #272E2D",
"V 	c #BCA24A",
"W 	c #9B7626",
"X 	c #7C5D1F",
"Y 	c #23221B",
"Z 	c #292418",
"` 	c #191E1D",
" .	c #52433C",
"..	c #4F4039",
"+.	c #3D302B",
"@.	c #3F322C",
"#.	c #3E312B",
"$.	c #2C2520",
"%.	c #3E622E",
"&.	c #93AF3A",
"*.	c #406D49",
"=.	c #2C5F62",
"-.	c #538989",
";.	c #599394",
">.	c #599294",
",.	c #5A9394",
"'.	c #377177",
").	c #8B6926",
"!.	c #4B380A",
"~.	c #3E6C70",
"{.	c #355F63",
"].	c #1D3C3E",
"^.	c #203D3F",
"/.	c #291D17",
"(.	c #2B1F1B",
"_.	c #42342E",
":.	c #3C3428",
"<.	c #3B5D2C",
"[.	c #4C642F",
"}.	c #746B2D",
"|.	c #9A6231",
"1.	c #D77447",
"2.	c #E3B557",
"3.	c #D7774B",
"4.	c #DA8A4F",
"5.	c #DEA154",
"6.	c #D6734B",
"7.	c #D18E44",
"8.	c #AF6137",
"9.	c #AE5F36",
"0.	c #637877",
"a.	c #607577",
"b.	c #687D78",
"c.	c #45797E",
"d.	c #2C5154",
"e.	c #2C4F52",
"f.	c #0F1D1F",
"g.	c #372C27",
"h.	c #365128",
"i.	c #3E5F2C",
"j.	c #974E30",
"k.	c #A26D2D",
"l.	c #977837",
"m.	c #946632",
"n.	c #8F502C",
"o.	c #936731",
"p.	c #977836",
"q.	c #946B32",
"r.	c #90542D",
"s.	c #926030",
"t.	c #855B25",
"u.	c #825725",
"v.	c #C28336",
"w.	c #B66836",
"x.	c #BC7937",
"y.	c #A58259",
"z.	c #946458",
"A.	c #8C5D46",
"B.	c #3C5555",
"C.	c #2C5457",
"D.	c #244547",
"E.	c #475F41",
"F.	c #5D8632",
"G.	c #41602D",
"H.	c #43221C",
"I.	c #402825",
"J.	c #373131",
"K.	c #203A3F",
"L.	c #4A353B",
"M.	c #B0757F",
"N.	c #BC838B",
"O.	c #B67983",
"P.	c #B3747F",
"Q.	c #B57782",
"R.	c #B06C78",
"S.	c #96545F",
"T.	c #96545E",
"U.	c #522A27",
"V.	c #5D2F2E",
"W.	c #5F302F",
"X.	c #A86932",
"Y.	c #A25C32",
"Z.	c #AD7532",
"`.	c #96623B",
" +	c #864127",
".+	c #5A584F",
"++	c #4C4D4E",
"@+	c #274744",
"#+	c #3E6731",
"$+	c #44391F",
"%+	c #2B3E42",
"&+	c #2A4E51",
"*+	c #263D42",
"=+	c #5F3038",
"-+	c #C79CA3",
";+	c #F0CDCA",
">+	c #CB9EA5",
",+	c #BF8A93",
"'+	c #E4BEBE",
")+	c #9A6972",
"!+	c #AF6C78",
"~+	c #965A64",
"{+	c #9C5D68",
"]+	c #A15E69",
"^+	c #8D4B55",
"/+	c #723C44",
"(+	c #7A4048",
"_+	c #7F424B",
":+	c #5F2C24",
"<+	c #5E3622",
"[+	c #884C2D",
"}+	c #8C502F",
"|+	c #866344",
"1+	c #593924",
"2+	c #2A481F",
"3+	c #1F3B3F",
"4+	c #2E5256",
"5+	c #2E5457",
"6+	c #273E42",
"7+	c #714048",
"8+	c #9D616C",
"9+	c #D5A8AB",
"0+	c #BE8D95",
"a+	c #844B55",
"b+	c #C28F98",
"c+	c #B97C86",
"d+	c #724049",
"e+	c #AB6974",
"f+	c #A1626D",
"g+	c #A0616C",
"h+	c #A96672",
"i+	c #AC6874",
"j+	c #995D67",
"k+	c #874852",
"l+	c #92505B",
"m+	c #995762",
"n+	c #94525C",
"o+	c #653336",
"p+	c #422828",
"q+	c #743924",
"r+	c #7D492C",
"s+	c #664921",
"t+	c #40652E",
"u+	c #476827",
"v+	c #122523",
"w+	c #213F43",
"x+	c #253A3F",
"y+	c #8D545E",
"z+	c #A3636F",
"A+	c #955964",
"B+	c #AD6A76",
"C+	c #824C56",
"D+	c #75424A",
"E+	c #9E5F6A",
"F+	c #66373E",
"G+	c #9D5F6A",
"H+	c #854F58",
"I+	c #AE6B77",
"J+	c #995C67",
"K+	c #9D5B66",
"L+	c #AE6A76",
"M+	c #8D4C56",
"N+	c #45373E",
"O+	c #27363A",
"P+	c #26363B",
"Q+	c #50261D",
"R+	c #442F1C",
"S+	c #27431C",
"T+	c #26421C",
"U+	c #68454D",
"V+	c #AA6874",
"W+	c #753F37",
"X+	c #B1826D",
"Y+	c #946353",
"Z+	c #763914",
"`+	c #773926",
" @	c #A3582F",
".@	c #6D3C3A",
"+@	c #C18C95",
"@@	c #A6717A",
"#@	c #B4747F",
"$@	c #B2717C",
"%@	c #8F535E",
"&@	c #B16D79",
"*@	c #1E3A3F",
"=@	c #1D3A40",
"-@	c #313234",
";@	c #5D5A22",
">@	c #5B8130",
",@	c #6C4D44",
"'@	c #904F36",
")@	c #F5BD99",
"!@	c #EEA886",
"~@	c #8B4B48",
"{@	c #918A79",
"]@	c #AE9980",
"^@	c #814638",
"/@	c #C5939C",
"(@	c #7C4A53",
"_@	c #BB818B",
":@	c #B57882",
"<@	c #743E46",
"[@	c #8C4B55",
"}@	c #8B4C55",
"|@	c #43373E",
"1@	c #1D393E",
"2@	c #52601D",
"3@	c #5E8632",
"4@	c #8A582E",
"5@	c #F6CBB0",
"6@	c #F3B295",
"7@	c #3B1C15",
"8@	c #DED6D7",
"9@	c #B0A089",
"0@	c #804538",
"a@	c #9C5A65",
"b@	c #905660",
"c@	c #CCA0A8",
"d@	c #A96E78",
"e@	c #723D46",
"f@	c #AA6672",
"g@	c #643941",
"h@	c #1A3B40",
"i@	c #1E3B40",
"j@	c #183034",
"k@	c #13282B",
"l@	c #254023",
"m@	c #678533",
"n@	c #D89B75",
"o@	c #FBDAC6",
"p@	c #FACEB3",
"q@	c #C88983",
"r@	c #EDDAD8",
"s@	c #F6C19E",
"t@	c #AD7B68",
"u@	c #774545",
"v@	c #C28F97",
"w@	c #75434C",
"x@	c #AB6874",
"y@	c #7F444D",
"z@	c #5F343B",
"A@	c #122411",
"B@	c #333F15",
"C@	c #4A6C28",
"D@	c #3E662E",
"E@	c #3F682F",
"F@	c #516931",
"G@	c #D58D69",
"H@	c #FACDB1",
"I@	c #FBDDC9",
"J@	c #FCDCC6",
"K@	c #FAC5A3",
"L@	c #F9C19D",
"M@	c #F0A685",
"N@	c #A36457",
"O@	c #A5646F",
"P@	c #8C4E59",
"Q@	c #4F292F",
"R@	c #8E4B55",
"S@	c #8E4C56",
"T@	c #9A5762",
"U@	c #653F40",
"V@	c #496824",
"W@	c #D48E70",
"X@	c #F4BA97",
"Y@	c #F9C29E",
"Z@	c #F9C09C",
"`@	c #E49C7D",
" #	c #763F48",
".#	c #854750",
"+#	c #7A4525",
"@#	c #734038",
"##	c #904E58",
"$#	c #94515C",
"%#	c #8B4A54",
"&#	c #8E555F",
"*#	c #AA6873",
"=#	c #5D6C35",
"-#	c #365425",
";#	c #7A4833",
">#	c #CB8A65",
",#	c #E49D7B",
"'#	c #EFA482",
")#	c #8E5847",
"!#	c #51282F",
"~#	c #8A4E2E",
"{#	c #B6693A",
"]#	c #552E18",
"^#	c #9C5963",
"/#	c #C08B94",
"(#	c #91535E",
"_#	c #884952",
":#	c #4E5534",
"<#	c #1E3515",
"[#	c #0E0406",
"}#	c #674B1A",
"|#	c #2F2E28",
"1#	c #52402F",
"2#	c #777267",
"3#	c #747065",
"4#	c #5F4141",
"5#	c #623840",
"6#	c #C08E96",
"7#	c #BD858F",
"8#	c #78434C",
"9#	c #8F5560",
"0#	c #A4626E",
"a#	c #67634E",
"b#	c #B0A897",
"c#	c #D9B453",
"d#	c #5D5B51",
"e#	c #BC945A",
"f#	c #DCD4C2",
"g#	c #E2D9C5",
"h#	c #7E7164",
"i#	c #49252C",
"j#	c #72414A",
"k#	c #7E464F",
"l#	c #77424B",
"m#	c #835457",
"n#	c #426831",
"o#	c #454D2D",
"p#	c #C49D5F",
"q#	c #E0B749",
"r#	c #A5966F",
"s#	c #437A80",
"t#	c #7B5F43",
"u#	c #422E21",
"v#	c #4E3C35",
"w#	c #3F312B",
"x#	c #45282C",
"y#	c #422227",
"z#	c #693C44",
"A#	c #814B54",
"B#	c #693840",
"C#	c #8F4E58",
"D#	c #8C545E",
"E#	c #426731",
"F#	c #436832",
"G#	c #6D5741",
"H#	c #868067",
"I#	c #41696B",
"J#	c #48797E",
"K#	c #466D70",
"L#	c #584E45",
"M#	c #AEA595",
"N#	c #A79E8F",
"O#	c #5C413D",
"P#	c #60343C",
"Q#	c #75454E",
"R#	c #C3919A",
"S#	c #9C5B66",
"T#	c #75414A",
"U#	c #8B535C",
"V#	c #3B622C",
"W#	c #140300",
"X#	c #413029",
"Y#	c #412E27",
"Z#	c #2E2522",
"`#	c #4B4B47",
" $	c #D5C69B",
".$	c #919086",
"+$	c #8C683D",
"@$	c #4D2B30",
"#$	c #573138",
"$$	c #BC8790",
"%$	c #AC767F",
"&$	c #5B3034",
"*$	c #401704",
"=$	c #3F672F",
"-$	c #8DA23F",
";$	c #ABA49A",
">$	c #C4BFB4",
",$	c #C1BBAF",
"'$	c #584D46",
")$	c #3C6A6E",
"!$	c #769F97",
"~$	c #4A7A7D",
"{$	c #5E6C67",
"]$	c #2D231C",
"^$	c #3D642D",
"/$	c #3D3527",
"($	c #673026",
"_$	c #984B31",
":$	c #86515A",
"<$	c #61473F",
"[$	c #6A5246",
"}$	c #DCB5AA",
"|$	c #EDC5BD",
"1$	c #B59F95",
"2$	c #4B3E37",
"3$	c #163033",
"4$	c #705F58",
"5$	c #543021",
"6$	c #251A15",
"7$	c #5B3138",
"8$	c #28441D",
"9$	c #673B43",
"0$	c #9A757C",
"a$	c #BA7C87",
"b$	c #8E585F",
"c$	c #476132",
"d$	c #3B471E",
"e$	c #B7A598",
"f$	c #E2C9C4",
"g$	c #D49281",
"h$	c #948E8D",
"i$	c #40332D",
"j$	c #1C1512",
"k$	c #251712",
"l$	c #3E3029",
"m$	c #342623",
"n$	c #29471E",
"o$	c #654441",
"p$	c #AF6B77",
"q$	c #C6969F",
"r$	c #8F6E74",
"s$	c #9B5E69",
"t$	c #4D5834",
"u$	c #29451D",
"v$	c #231814",
"w$	c #31231A",
"x$	c #79736A",
"y$	c #1F120C",
"z$	c #392D27",
"A$	c #7B7369",
"B$	c #231A16",
"C$	c #3C302A",
"D$	c #211C18",
"E$	c #261D1A",
"F$	c #354B27",
"G$	c #674141",
"H$	c #9F606B",
"I$	c #AA6975",
"J$	c #564346",
"K$	c #315224",
"L$	c #476432",
"M$	c #2E4E22",
"N$	c #233C19",
"O$	c #2D4320",
"P$	c #44342E",
"Q$	c #1F1512",
"R$	c #3E2B27",
"S$	c #664B45",
"T$	c #563E38",
"U$	c #293813",
"V$	c #75321F",
"W$	c #3C3C15",
"X$	c #5C8331",
"Y$	c #2C3D16",
"Z$	c #364A1C",
"`$	c #3E4A2C",
" %	c #70524C",
".%	c #493630",
"+%	c #937366",
"@%	c #97766A",
"#%	c #6D504C",
"$%	c #597C30",
"%%	c #365928",
"  . . . . . . . . . . . . + @ # $ % & * * = - ; > . . . . . . . ",
".     . . . , , , . . ' ) ! ~ { ] ^ / ( _ : < < [ } | 1 . . .   ",
". .   . . . .     , 2 3 4 5 6 6 6 6 7 8 9 0 a b c d e f . .     ",
". . . . . . . .   g h i j k l m n o p q r s t u v w x   . .   . ",
",   . . . . . y z A B C D E F G H I J K L M N O P . . . . . . . ",
"  . . . . . , Q R S T U V W X Y Z `  ...+.@.#.$.%.. . , , . . . ",
"  .   . . &.*.=.-.;.>.,.'.).!.~.~.~.{.].^./.(._.:.<.,     . . , ",
".   . [.}.|.1.2.3.4.5.6.7.8.9.0.0.a.b.c.{.d.e.f.g.h.    . . ,   ",
".   i.j.k.l.m.n.o.p.q.r.s.t.u.v.v.w.x.y.z.A.B.C.D.E.F.. . ,     ",
". G.H.I.J.K.L.M.N.O.P.Q.R.S.T.U.V.V.W.X.Y.Z.`. +.+++@+#+      . ",
". $+%+&+&+*+=+-+;+>+,+'+)+!+R.~+{+]+^+/+(+_+:+<+[+}+|+1+y . . . ",
". 2+3+4+5+6+7+8+9+0+a+b+c+d+e+f+g+h+i+j+k+l+m+n+o+p+q+r+s+t+. . ",
". , u+v+w+x+y+z+A+B+C+D+E+F+G+H+I+R.R.J+k+K+R.L+M+N+O+P+Q+R+y   ",
". ,   . S+T+U+V+W+X+Y+Z+`+ @.@+@@@#@$@%@k+K+R.&@M+N+*@*@=@-@;@. ",
".   . . . . >@,@'@)@!@~@{@]@^@/@(@_@:@<@[@K+R.&@}@|@*@*@*@1@2@, ",
"  . . . . . . 3@4@5@6@7@8@9@0@a@b@c@d@e@^+K+R.f@g@h@i@j@k@l@    ",
"    . . . , . m@n@o@p@q@r@s@t@u@f+v@w@[@^+K+x@y@z@A@B@C@D@E@. , ",
"  . . . .   , F@G@H@I@J@K@L@M@N@O@P@Q@R@^+n+S@T@U@,   . . . ,   ",
". . . . . .   . V@W@X@Y@L@Z@`@ #.#+#@###$#^+%#&#*#=#. . .       ",
". .   , , . . . . -#;#>#,#'#)#!#~#{#]#^#/#(#_#&#x@:#. . .     . ",
". . .     , . . . . . <#[#}#|#1#2#3#4#5#6#7#8#9#0#:#. . .   . . ",
", , . .     . . , , . a#b#c#d#e#f#g#h#i#j#T.[@k#l#m#n#.   . .   ",
"    . . .     . ,   o#p#q#r#s#t#u#v#w#x#y#z#A#B#C#D#E#. . .     ",
"  . . . . .       . F#G#H#I#J#K#L#M#N#O#P#Q#R#S#T#U#E#. . .     ",
". , , , . .     . . . V#W#X#Y#Z#`# $.$+$@$#$$$%$&$*$=$, , .   . ",
". .     , . . . . . , -$;$>$,$'$)$!$~${$]$^$/$($_$:$<$    , . . ",
". . .     , . . , ,   [$}$|$1$2$3$4$5$6$7$8$y 9$0$a$b$c$    . . ",
". . . .     .       d$e$f$g$h$i$j$k$l$i$m$n$o$p$q$r$s$t$.   .   ",
", . . . .         . u$v$w$x$y$z$A$B$C$D$E$F$G$H$I$J$K$L$. .     ",
"  , . . . .   . . . M$N$O$P$Q$R$S$T$U$V$W$M$X$Y$Z$. . . . . .   ",
".   . . . . . . . . . . `$ %.%+%@%#%$%%%=$  . . . . . . . . . . ",
". . . . . . . . . .     . . .   . . . . . . . . . . . . . . . . "};
